<svg xmlns="http://www.w3.org/2000/svg" width="920" height="520" viewBox="0 0 920 520">
<rect width="100%" height="100%" fill="#ffffff"/>
<text x="460.0" y="30" text-anchor="middle" font-size="20" font-weight="700" fill="#111827">Control Voltage Signal</text>
<line x1="78.00" y1="54" x2="78.00" y2="444" stroke="#e5e7eb" stroke-width="1"/><text x="78.00" y="472" text-anchor="middle" font-size="12" fill="#374151">0.0</text><line x1="240.80" y1="54" x2="240.80" y2="444" stroke="#e5e7eb" stroke-width="1"/><text x="240.80" y="472" text-anchor="middle" font-size="12" fill="#374151">2.0</text><line x1="403.60" y1="54" x2="403.60" y2="444" stroke="#e5e7eb" stroke-width="1"/><text x="403.60" y="472" text-anchor="middle" font-size="12" fill="#374151">4.0</text><line x1="566.40" y1="54" x2="566.40" y2="444" stroke="#e5e7eb" stroke-width="1"/><text x="566.40" y="472" text-anchor="middle" font-size="12" fill="#374151">6.0</text><line x1="729.20" y1="54" x2="729.20" y2="444" stroke="#e5e7eb" stroke-width="1"/><text x="729.20" y="472" text-anchor="middle" font-size="12" fill="#374151">8.0</text><line x1="892.00" y1="54" x2="892.00" y2="444" stroke="#e5e7eb" stroke-width="1"/><text x="892.00" y="472" text-anchor="middle" font-size="12" fill="#374151">10.0</text><line x1="78" y1="444.00" x2="892" y2="444.00" stroke="#e5e7eb" stroke-width="1"/><text x="66" y="448.00" text-anchor="end" font-size="12" fill="#374151">8.79</text><line x1="78" y1="366.00" x2="892" y2="366.00" stroke="#e5e7eb" stroke-width="1"/><text x="66" y="370.00" text-anchor="end" font-size="12" fill="#374151">12.06</text><line x1="78" y1="288.00" x2="892" y2="288.00" stroke="#e5e7eb" stroke-width="1"/><text x="66" y="292.00" text-anchor="end" font-size="12" fill="#374151">15.33</text><line x1="78" y1="210.00" x2="892" y2="210.00" stroke="#e5e7eb" stroke-width="1"/><text x="66" y="214.00" text-anchor="end" font-size="12" fill="#374151">18.59</text><line x1="78" y1="132.00" x2="892" y2="132.00" stroke="#e5e7eb" stroke-width="1"/><text x="66" y="136.00" text-anchor="end" font-size="12" fill="#374151">21.86</text><line x1="78" y1="54.00" x2="892" y2="54.00" stroke="#e5e7eb" stroke-width="1"/><text x="66" y="58.00" text-anchor="end" font-size="12" fill="#374151">25.13</text>
<line x1="78" y1="54" x2="78" y2="444" stroke="#111827" stroke-width="1.5"/>
<line x1="78" y1="444" x2="892" y2="444" stroke="#111827" stroke-width="1.5"/>
<text x="460.0" y="478" text-anchor="middle" font-size="14" fill="#111827">Time (s)</text>
<text transform="translate(20 260.0) rotate(-90)" text-anchor="middle" font-size="14" fill="#111827">Voltage (V)</text>
<polyline points="78.00,80.90 78.81,212.84 79.63,214.27 80.44,215.14 81.26,216.52 82.07,218.33 82.88,220.53 83.70,223.08 84.51,225.93 85.33,229.03 86.14,232.35 86.95,235.86 87.77,239.53 88.58,243.33 89.40,247.23 90.21,251.21 91.02,255.25 91.84,259.33 92.65,263.44 93.47,267.56 94.28,271.67 95.09,275.78 95.91,279.85 96.72,283.89 97.54,287.89 98.35,291.84 99.16,295.73 99.98,299.56 100.79,303.33 101.61,307.02 102.42,310.64 103.23,314.18 104.05,317.64 104.86,321.03 105.68,324.33 106.49,327.54 107.30,330.68 108.12,333.73 108.93,336.69 109.75,339.57 110.56,342.37 111.37,345.09 112.19,347.72 113.00,350.28 113.82,352.75 114.63,355.14 115.44,357.46 116.26,359.70 117.07,361.87 117.89,363.97 118.70,365.99 119.51,367.94 120.33,369.83 121.14,371.65 121.96,373.40 122.77,375.10 123.58,376.73 124.40,378.30 125.21,379.81 126.03,381.27 126.84,382.67 127.65,384.02 128.47,385.32 129.28,386.57 130.10,387.78 130.91,388.93 131.72,390.04 132.54,391.11 133.35,392.14 134.17,393.12 134.98,394.07 135.79,394.98 136.61,395.85 137.42,396.69 138.24,397.49 139.05,398.26 139.86,399.00 140.68,399.71 141.49,400.39 142.31,401.04 143.12,401.67 143.93,402.27 144.75,402.84 145.56,403.39 146.38,403.92 147.19,404.42 148.00,404.91 148.82,405.37 149.63,405.81 150.45,406.24 151.26,406.64 152.07,407.03 152.89,407.40 153.70,407.76 154.52,408.10 155.33,408.42 156.14,408.73 156.96,409.03 157.77,409.31 158.59,409.58 159.40,409.84 160.21,410.09 161.03,410.33 161.84,410.56 162.66,410.77 163.47,410.98 164.28,411.18 165.10,411.36 165.91,411.54 166.73,411.71 167.54,411.88 168.35,412.03 169.17,412.18 169.98,412.33 170.80,412.46 171.61,412.59 172.42,412.71 173.24,412.83 174.05,412.94 174.87,413.05 175.68,413.15 176.49,413.25 177.31,413.34 178.12,413.43 178.94,413.51 179.75,413.59 180.56,413.67 181.38,413.74 182.19,413.81 183.01,413.87 183.82,413.93 184.63,413.99 185.45,414.05 186.26,414.10 187.08,414.15 187.89,414.20 188.70,414.25 189.52,414.29 190.33,414.33 191.15,414.37 191.96,414.41 192.77,414.44 193.59,414.47 194.40,414.51 195.22,414.54 196.03,414.56 196.84,414.59 197.66,414.62 198.47,414.64 199.29,414.66 200.10,414.68 200.91,414.70 201.73,414.72 202.54,414.74 203.36,414.76 204.17,414.77 204.98,414.79 205.80,414.80 206.61,414.82 207.43,414.83 208.24,414.84 209.05,414.85 209.87,414.86 210.68,414.87 211.50,414.88 212.31,414.89 213.12,414.90 213.94,414.91 214.75,414.91 215.57,414.92 216.38,414.92 217.19,414.93 218.01,414.94 218.82,414.94 219.64,414.94 220.45,414.95 221.26,414.95 222.08,414.96 222.89,414.96 223.71,414.96 224.52,414.96 225.33,414.97 226.15,414.97 226.96,414.97 227.78,414.97 228.59,414.97 229.40,414.98 230.22,414.98 231.03,414.98 231.85,414.98 232.66,414.98 233.47,414.98 234.29,414.98 235.10,414.98 235.92,414.98 236.73,414.98 237.54,414.98 238.36,414.98 239.17,414.98 239.99,414.98 240.80,414.98 241.61,414.98 242.43,414.98 243.24,414.98 244.06,414.98 244.87,414.98 245.68,414.98 246.50,414.98 247.31,414.98 248.13,414.98 248.94,414.98 249.75,414.97 250.57,414.97 251.38,414.97 252.20,414.97 253.01,414.97 253.82,414.97 254.64,414.97 255.45,414.97 256.27,414.97 257.08,414.97 257.89,414.97 258.71,414.96 259.52,414.96 260.34,414.96 261.15,414.96 261.96,414.96 262.78,414.96 263.59,414.96 264.41,414.96 265.22,414.96 266.03,414.95 266.85,414.95 267.66,414.95 268.48,414.95 269.29,414.95 270.10,414.95 270.92,414.95 271.73,414.95 272.55,414.95 273.36,414.95 274.17,414.95 274.99,414.94 275.80,414.94 276.62,414.94 277.43,414.94 278.24,414.94 279.06,414.94 279.87,414.94 280.69,414.94 281.50,414.94 282.31,414.94 283.13,414.94 283.94,414.93 284.76,414.93 285.57,414.93 286.38,414.93 287.20,414.93 288.01,414.93 288.83,414.93 289.64,414.93 290.45,414.93 291.27,414.93 292.08,414.93 292.90,414.93 293.71,414.93 294.52,414.92 295.34,414.92 296.15,414.92 296.97,414.92 297.78,414.92 298.59,414.92 299.41,414.92 300.22,414.92 301.04,414.92 301.85,414.92 302.66,414.92 303.48,414.92 304.29,414.92 305.11,414.92 305.92,414.92 306.73,414.92 307.55,414.92 308.36,414.92 309.18,414.91 309.99,414.91 310.80,414.91 311.62,414.91 312.43,414.91 313.25,414.91 314.06,414.91 314.87,414.91 315.69,414.91 316.50,414.91 317.32,414.91 318.13,414.91 318.94,414.91 319.76,414.91 320.57,414.91 321.39,414.91 322.20,414.91 323.01,414.91 323.83,414.91 324.64,414.91 325.46,414.91 326.27,414.91 327.08,414.91 327.90,414.91 328.71,414.91 329.53,414.91 330.34,414.91 331.15,414.90 331.97,414.90 332.78,414.90 333.60,414.90 334.41,414.90 335.22,414.90 336.04,414.90 336.85,414.90 337.67,414.90 338.48,414.90 339.29,414.90 340.11,414.90 340.92,414.90 341.74,414.90 342.55,414.90 343.36,414.90 344.18,414.90 344.99,414.90 345.81,414.90 346.62,414.90 347.43,414.90 348.25,414.90 349.06,414.90 349.88,414.90 350.69,414.90 351.50,414.90 352.32,414.90 353.13,414.90 353.95,414.90 354.76,414.90 355.57,414.90 356.39,414.90 357.20,414.90 358.02,414.90 358.83,414.90 359.64,414.90 360.46,414.90 361.27,414.90 362.09,414.90 362.90,414.90 363.71,414.90 364.53,414.90 365.34,414.90 366.16,414.90 366.97,414.90 367.78,414.90 368.60,414.90 369.41,414.90 370.23,414.90 371.04,414.90 371.85,414.90 372.67,414.90 373.48,414.90 374.30,414.90 375.11,414.90 375.92,414.90 376.74,414.90 377.55,414.90 378.37,414.90 379.18,414.90 379.99,414.90 380.81,414.90 381.62,414.90 382.44,414.90 383.25,414.90 384.06,414.90 384.88,414.90 385.69,414.90 386.51,414.90 387.32,414.90 388.13,414.90 388.95,414.90 389.76,414.90 390.58,414.89 391.39,414.89 392.20,414.89 393.02,414.89 393.83,414.89 394.65,414.89 395.46,414.89 396.27,414.89 397.09,414.89 397.90,414.89 398.72,414.89 399.53,414.89 400.34,414.89 401.16,414.89 401.97,414.89 402.79,414.89 403.60,414.89 404.41,414.89 405.23,414.89 406.04,414.89 406.86,414.89 407.67,414.89 408.48,414.89 409.30,414.89 410.11,414.89 410.93,414.89 411.74,414.89 412.55,414.89 413.37,414.89 414.18,414.89 415.00,414.89 415.81,414.89 416.62,414.89 417.44,414.89 418.25,414.89 419.07,414.89 419.88,414.89 420.69,414.89 421.51,414.89 422.32,414.89 423.14,414.89 423.95,414.89 424.76,414.89 425.58,414.89 426.39,414.89 427.21,414.89 428.02,414.89 428.83,414.89 429.65,414.89 430.46,414.89 431.28,414.89 432.09,414.89 432.90,414.89 433.72,414.89 434.53,414.89 435.35,414.89 436.16,414.89 436.97,414.89 437.79,414.89 438.60,414.89 439.42,414.89 440.23,414.89 441.04,414.89 441.86,414.89 442.67,414.89 443.49,414.89 444.30,414.89 445.11,414.89 445.93,414.89 446.74,414.89 447.56,414.89 448.37,414.89 449.18,414.89 450.00,414.89 450.81,414.89 451.63,414.89 452.44,414.89 453.25,414.89 454.07,414.89 454.88,414.89 455.70,414.89 456.51,414.89 457.32,414.89 458.14,414.89 458.95,414.89 459.77,414.89 460.58,414.89 461.39,414.89 462.21,414.89 463.02,414.89 463.84,414.89 464.65,414.89 465.46,414.89 466.28,414.89 467.09,414.89 467.91,414.89 468.72,414.89 469.53,414.89 470.35,414.89 471.16,414.89 471.98,414.89 472.79,414.89 473.60,414.89 474.42,414.89 475.23,414.89 476.05,414.89 476.86,414.89 477.67,414.89 478.49,414.89 479.30,414.89 480.12,414.89 480.93,414.89 481.74,414.89 482.56,414.89 483.37,414.89 484.19,414.89 485.00,414.89 485.81,410.42 486.63,410.04 487.44,409.73 488.26,409.46 489.07,409.21 489.88,409.00 490.70,408.81 491.51,408.64 492.33,408.50 493.14,408.38 493.95,408.27 494.77,408.19 495.58,408.12 496.40,408.06 497.21,408.01 498.02,407.98 498.84,407.95 499.65,407.93 500.47,407.93 501.28,407.93 502.09,407.93 502.91,407.94 503.72,407.96 504.54,407.98 505.35,408.01 506.16,408.04 506.98,408.07 507.79,408.10 508.61,408.14 509.42,408.18 510.23,408.22 511.05,408.26 511.86,408.30 512.68,408.35 513.49,408.39 514.30,408.44 515.12,408.48 515.93,408.53 516.75,408.57 517.56,408.61 518.37,408.66 519.19,408.70 520.00,408.75 520.82,408.79 521.63,408.83 522.44,408.87 523.26,408.91 524.07,408.95 524.89,408.99 525.70,409.03 526.51,409.07 527.33,409.10 528.14,409.14 528.96,409.17 529.77,409.21 530.58,409.24 531.40,409.27 532.21,409.30 533.03,409.33 533.84,409.36 534.65,409.39 535.47,409.42 536.28,409.44 537.10,409.47 537.91,409.49 538.72,409.52 539.54,409.54 540.35,409.56 541.17,409.58 541.98,409.61 542.79,409.63 543.61,409.65 544.42,409.66 545.24,409.68 546.05,409.70 546.86,409.72 547.68,409.73 548.49,409.75 549.31,409.76 550.12,409.78 550.93,409.79 551.75,409.81 552.56,409.82 553.38,409.83 554.19,409.84 555.00,409.86 555.82,409.87 556.63,409.88 557.45,409.89 558.26,409.90 559.07,409.91 559.89,409.92 560.70,409.92 561.52,409.93 562.33,409.94 563.14,409.95 563.96,409.96 564.77,409.96 565.59,409.97 566.40,409.98 567.21,409.98 568.03,409.99 568.84,409.99 569.66,410.00 570.47,410.00 571.28,410.01 572.10,410.01 572.91,410.02 573.73,410.02 574.54,410.03 575.35,410.03 576.17,410.04 576.98,410.04 577.80,410.04 578.61,410.05 579.42,410.05 580.24,410.05 581.05,410.06 581.87,410.06 582.68,410.06 583.49,410.06 584.31,414.54 585.12,414.92 585.94,415.23 586.75,415.51 587.56,415.76 588.38,415.97 589.19,416.16 590.01,416.33 590.82,416.47 591.63,416.60 592.45,416.70 593.26,416.79 594.08,416.87 594.89,416.93 595.70,416.97 596.52,417.01 597.33,417.04 598.15,417.05 598.96,417.06 599.77,417.06 600.59,417.06 601.40,417.05 602.22,417.03 603.03,417.01 603.84,416.99 604.66,416.96 605.47,416.93 606.29,416.89 607.10,416.86 607.91,416.82 608.73,416.78 609.54,416.74 610.36,416.70 611.17,416.65 611.98,416.61 612.80,416.57 613.61,416.52 614.43,416.48 615.24,416.43 616.05,416.39 616.87,416.35 617.68,416.30 618.50,416.26 619.31,416.22 620.12,416.18 620.94,416.13 621.75,416.09 622.57,416.06 623.38,416.02 624.19,415.98 625.01,415.94 625.82,415.91 626.64,415.87 627.45,415.84 628.26,415.80 629.08,415.77 629.89,415.74 630.71,415.71 631.52,415.68 632.33,415.65 633.15,415.62 633.96,415.59 634.78,415.57 635.59,415.54 636.40,415.52 637.22,415.49 638.03,415.47 638.85,415.45 639.66,415.43 640.47,415.40 641.29,415.38 642.10,415.36 642.92,415.35 643.73,415.33 644.54,415.31 645.36,415.29 646.17,415.28 646.99,415.26 647.80,415.25 648.61,415.23 649.43,415.22 650.24,415.20 651.06,415.19 651.87,415.18 652.68,415.17 653.50,415.16 654.31,415.14 655.13,415.13 655.94,415.12 656.75,415.11 657.57,415.10 658.38,415.10 659.20,415.09 660.01,415.08 660.82,415.07 661.64,415.06 662.45,415.06 663.27,415.05 664.08,415.04 664.89,415.03 665.71,415.03 666.52,415.02 667.34,415.02 668.15,415.01 668.96,415.01 669.78,415.00 670.59,415.00 671.41,414.99 672.22,414.99 673.03,414.98 673.85,414.98 674.66,414.98 675.48,414.97 676.29,414.97 677.10,414.96 677.92,414.96 678.73,414.96 679.55,414.95 680.36,414.95 681.17,414.95 681.99,414.95 682.80,414.94 683.62,414.94 684.43,414.94 685.24,414.94 686.06,414.94 686.87,414.93 687.69,414.93 688.50,414.93 689.31,414.93 690.13,414.93 690.94,414.92 691.76,414.92 692.57,414.92 693.38,414.92 694.20,414.92 695.01,414.92 695.83,414.92 696.64,414.92 697.45,414.91 698.27,414.91 699.08,414.91 699.90,414.91 700.71,414.91 701.52,414.91 702.34,414.91 703.15,414.91 703.97,414.91 704.78,414.91 705.59,414.91 706.41,414.90 707.22,414.90 708.04,414.90 708.85,414.90 709.66,414.90 710.48,414.90 711.29,414.90 712.11,414.90 712.92,414.90 713.73,414.90 714.55,414.90 715.36,414.90 716.18,414.90 716.99,414.90 717.80,414.90 718.62,414.90 719.43,414.90 720.25,414.90 721.06,414.90 721.87,414.90 722.69,414.90 723.50,414.90 724.32,414.90 725.13,414.90 725.94,414.90 726.76,414.90 727.57,414.90 728.39,414.89 729.20,414.89 730.01,414.89 730.83,414.89 731.64,414.89 732.46,414.89 733.27,414.89 734.08,414.89 734.90,414.89 735.71,414.89 736.53,414.89 737.34,414.89 738.15,414.89 738.97,414.89 739.78,414.89 740.60,414.89 741.41,414.89 742.22,414.89 743.04,414.89 743.85,414.89 744.67,414.89 745.48,414.89 746.29,414.89 747.11,414.89 747.92,414.89 748.74,414.89 749.55,414.89 750.36,414.89 751.18,414.89 751.99,414.89 752.81,414.89 753.62,414.89 754.43,414.89 755.25,414.89 756.06,414.89 756.88,414.89 757.69,414.89 758.50,414.89 759.32,414.89 760.13,414.89 760.95,414.89 761.76,414.89 762.57,414.89 763.39,414.89 764.20,414.89 765.02,414.89 765.83,414.89 766.64,414.89 767.46,414.89 768.27,414.89 769.09,414.89 769.90,414.89 770.71,414.89 771.53,414.89 772.34,414.89 773.16,414.89 773.97,414.89 774.78,414.89 775.60,414.89 776.41,414.89 777.23,414.89 778.04,414.89 778.85,414.89 779.67,414.89 780.48,414.89 781.30,414.89 782.11,414.89 782.92,414.89 783.74,414.89 784.55,414.89 785.37,414.89 786.18,414.89 786.99,414.89 787.81,414.89 788.62,414.89 789.44,414.89 790.25,414.89 791.06,414.89 791.88,414.89 792.69,414.89 793.51,414.89 794.32,414.89 795.13,414.89 795.95,414.89 796.76,414.89 797.58,414.89 798.39,414.89 799.20,414.89 800.02,414.89 800.83,414.89 801.65,414.89 802.46,414.89 803.27,414.89 804.09,414.89 804.90,414.89 805.72,414.89 806.53,414.89 807.34,414.89 808.16,414.89 808.97,414.89 809.79,414.89 810.60,414.89 811.41,414.89 812.23,414.89 813.04,414.89 813.86,414.89 814.67,414.89 815.48,414.89 816.30,414.89 817.11,414.89 817.93,414.89 818.74,414.89 819.55,414.89 820.37,414.89 821.18,414.89 822.00,414.89 822.81,414.89 823.62,414.89 824.44,414.89 825.25,414.89 826.07,414.89 826.88,414.89 827.69,414.89 828.51,414.89 829.32,414.89 830.14,414.89 830.95,414.89 831.76,414.89 832.58,414.89 833.39,414.89 834.21,414.89 835.02,414.89 835.83,414.89 836.65,414.89 837.46,414.89 838.28,414.89 839.09,414.89 839.90,414.89 840.72,414.89 841.53,414.89 842.35,414.89 843.16,414.89 843.97,414.89 844.79,414.89 845.60,414.89 846.42,414.89 847.23,414.89 848.04,414.89 848.86,414.89 849.67,414.89 850.49,414.89 851.30,414.89 852.11,414.89 852.93,414.89 853.74,414.89 854.56,414.89 855.37,414.89 856.18,414.89 857.00,414.89 857.81,414.89 858.63,414.89 859.44,414.89 860.25,414.89 861.07,414.89 861.88,414.89 862.70,414.89 863.51,414.89 864.32,414.89 865.14,414.89 865.95,414.89 866.77,414.89 867.58,414.89 868.39,414.89 869.21,414.89 870.02,414.89 870.84,414.89 871.65,414.89 872.46,414.89 873.28,414.89 874.09,414.89 874.91,414.89 875.72,414.89 876.53,414.89 877.35,414.89 878.16,414.89 878.98,414.89 879.79,414.89 880.60,414.89 881.42,414.89 882.23,414.89 883.05,414.89 883.86,414.89 884.67,414.89 885.49,414.89 886.30,414.89 887.12,414.89 887.93,414.89 888.74,414.89 889.56,414.89 890.37,414.89 891.19,414.89 892.00,414.89" fill="none" stroke="#2563eb" stroke-width="2.5" stroke-linejoin="round" stroke-linecap="round"/><polyline points="78.00,80.90 78.81,212.73 79.63,214.30 80.44,215.28 81.26,216.74 82.07,218.63 82.88,220.90 83.70,223.50 84.51,226.38 85.33,229.50 86.14,232.82 86.95,236.30 87.77,239.93 88.58,243.67 89.40,247.50 90.21,251.40 91.02,255.35 91.84,259.34 92.65,263.35 93.47,267.37 94.28,271.39 95.09,275.40 95.91,279.39 96.72,283.35 97.54,287.28 98.35,291.17 99.16,295.00 99.98,298.79 100.79,302.52 101.61,306.19 102.42,309.80 103.23,313.34 104.05,316.81 104.86,320.20 105.68,323.52 106.49,326.75 107.30,329.91 108.12,332.99 108.93,335.99 109.75,338.90 110.56,341.73 111.37,344.48 112.19,347.15 113.00,349.74 113.82,352.24 114.63,354.66 115.44,357.01 116.26,359.28 117.07,361.47 117.89,363.58 118.70,365.62 119.51,367.59 120.33,369.49 121.14,371.33 121.96,373.09 122.77,374.79 123.58,376.43 124.40,378.01 125.21,379.52 126.03,380.98 126.84,382.39 127.65,383.74 128.47,385.04 129.28,386.29 130.10,387.49 130.91,388.64 131.72,389.75 132.54,390.82 133.35,391.84 134.17,392.82 134.98,393.77 135.79,394.67 136.61,395.54 137.42,396.38 138.24,397.18 139.05,397.95 139.86,398.68 140.68,399.39 141.49,400.07 142.31,400.72 143.12,401.35 143.93,401.95 144.75,402.52 145.56,403.07 146.38,403.60 147.19,404.10 148.00,404.59 148.82,405.05 149.63,405.50 150.45,405.92 151.26,406.33 152.07,406.72 152.89,407.10 153.70,407.46 154.52,407.80 155.33,408.13 156.14,408.44 156.96,408.75 157.77,409.03 158.59,409.31 159.40,409.58 160.21,409.83 161.03,410.07 161.84,410.30 162.66,410.52 163.47,410.74 164.28,410.94 165.10,411.13 165.91,411.32 166.73,411.49 167.54,411.66 168.35,411.82 169.17,411.98 169.98,412.13 170.80,412.27 171.61,412.40 172.42,412.53 173.24,412.65 174.05,412.77 174.87,412.88 175.68,412.99 176.49,413.09 177.31,413.19 178.12,413.28 178.94,413.37 179.75,413.46 180.56,413.54 181.38,413.61 182.19,413.69 183.01,413.76 183.82,413.82 184.63,413.89 185.45,413.95 186.26,414.00 187.08,414.06 187.89,414.11 188.70,414.16 189.52,414.21 190.33,414.25 191.15,414.29 191.96,414.33 192.77,414.37 193.59,414.41 194.40,414.44 195.22,414.48 196.03,414.51 196.84,414.54 197.66,414.57 198.47,414.59 199.29,414.62 200.10,414.64 200.91,414.66 201.73,414.69 202.54,414.71 203.36,414.73 204.17,414.74 204.98,414.76 205.80,414.78 206.61,414.79 207.43,414.81 208.24,414.82 209.05,414.83 209.87,414.84 210.68,414.86 211.50,414.87 212.31,414.88 213.12,414.89 213.94,414.89 214.75,414.90 215.57,414.91 216.38,414.92 217.19,414.92 218.01,414.93 218.82,414.94 219.64,414.94 220.45,414.95 221.26,414.95 222.08,414.96 222.89,414.96 223.71,414.96 224.52,414.97 225.33,414.97 226.15,414.97 226.96,414.98 227.78,414.98 228.59,414.98 229.40,414.98 230.22,414.98 231.03,414.99 231.85,414.99 232.66,414.99 233.47,414.99 234.29,414.99 235.10,414.99 235.92,414.99 236.73,414.99 237.54,414.99 238.36,414.99 239.17,414.99 239.99,414.99 240.80,414.99 241.61,414.99 242.43,414.99 243.24,414.99 244.06,414.99 244.87,414.99 245.68,414.99 246.50,414.99 247.31,414.99 248.13,414.99 248.94,414.99 249.75,414.98 250.57,414.98 251.38,414.98 252.20,414.98 253.01,414.98 253.82,414.98 254.64,414.98 255.45,414.98 256.27,414.98 257.08,414.98 257.89,414.98 258.71,414.97 259.52,414.97 260.34,414.97 261.15,414.97 261.96,414.97 262.78,414.97 263.59,414.97 264.41,414.97 265.22,414.97 266.03,414.96 266.85,414.96 267.66,414.96 268.48,414.96 269.29,414.96 270.10,414.96 270.92,414.96 271.73,414.96 272.55,414.96 273.36,414.95 274.17,414.95 274.99,414.95 275.80,414.95 276.62,414.95 277.43,414.95 278.24,414.95 279.06,414.95 279.87,414.95 280.69,414.95 281.50,414.94 282.31,414.94 283.13,414.94 283.94,414.94 284.76,414.94 285.57,414.94 286.38,414.94 287.20,414.94 288.01,414.94 288.83,414.94 289.64,414.94 290.45,414.93 291.27,414.93 292.08,414.93 292.90,414.93 293.71,414.93 294.52,414.93 295.34,414.93 296.15,414.93 296.97,414.93 297.78,414.93 298.59,414.93 299.41,414.93 300.22,414.93 301.04,414.92 301.85,414.92 302.66,414.92 303.48,414.92 304.29,414.92 305.11,414.92 305.92,414.92 306.73,414.92 307.55,414.92 308.36,414.92 309.18,414.92 309.99,414.92 310.80,414.92 311.62,414.92 312.43,414.92 313.25,414.92 314.06,414.92 314.87,414.91 315.69,414.91 316.50,414.91 317.32,414.91 318.13,414.91 318.94,414.91 319.76,414.91 320.57,414.91 321.39,414.91 322.20,414.91 323.01,414.91 323.83,414.91 324.64,414.91 325.46,414.91 326.27,414.91 327.08,414.91 327.90,414.91 328.71,414.91 329.53,414.91 330.34,414.91 331.15,414.91 331.97,414.91 332.78,414.91 333.60,414.91 334.41,414.91 335.22,414.91 336.04,414.91 336.85,414.90 337.67,414.90 338.48,414.90 339.29,414.90 340.11,414.90 340.92,414.90 341.74,414.90 342.55,414.90 343.36,414.90 344.18,414.90 344.99,414.90 345.81,414.90 346.62,414.90 347.43,414.90 348.25,414.90 349.06,414.90 349.88,414.90 350.69,414.90 351.50,414.90 352.32,414.90 353.13,414.90 353.95,414.90 354.76,414.90 355.57,414.90 356.39,414.90 357.20,414.90 358.02,414.90 358.83,414.90 359.64,414.90 360.46,414.90 361.27,414.90 362.09,414.90 362.90,414.90 363.71,414.90 364.53,414.90 365.34,414.90 366.16,414.90 366.97,414.90 367.78,414.90 368.60,414.90 369.41,414.90 370.23,414.90 371.04,414.90 371.85,414.90 372.67,414.90 373.48,414.90 374.30,414.90 375.11,414.90 375.92,414.90 376.74,414.90 377.55,414.90 378.37,414.90 379.18,414.90 379.99,414.90 380.81,414.90 381.62,414.90 382.44,414.90 383.25,414.90 384.06,414.90 384.88,414.90 385.69,414.90 386.51,414.90 387.32,414.90 388.13,414.90 388.95,414.90 389.76,414.90 390.58,414.90 391.39,414.90 392.20,414.90 393.02,414.90 393.83,414.90 394.65,414.90 395.46,414.89 396.27,414.89 397.09,414.89 397.90,414.89 398.72,414.89 399.53,414.89 400.34,414.89 401.16,414.89 401.97,414.89 402.79,414.89 403.60,414.89 404.41,414.89 405.23,414.89 406.04,414.89 406.86,414.89 407.67,414.89 408.48,414.89 409.30,414.89 410.11,414.89 410.93,414.89 411.74,414.89 412.55,414.89 413.37,414.89 414.18,414.89 415.00,414.89 415.81,414.89 416.62,414.89 417.44,414.89 418.25,414.89 419.07,414.89 419.88,414.89 420.69,414.89 421.51,414.89 422.32,414.89 423.14,414.89 423.95,414.89 424.76,414.89 425.58,414.89 426.39,414.89 427.21,414.89 428.02,414.89 428.83,414.89 429.65,414.89 430.46,414.89 431.28,414.89 432.09,414.89 432.90,414.89 433.72,414.89 434.53,414.89 435.35,414.89 436.16,414.89 436.97,414.89 437.79,414.89 438.60,414.89 439.42,414.89 440.23,414.89 441.04,414.89 441.86,414.89 442.67,414.89 443.49,414.89 444.30,414.89 445.11,414.89 445.93,414.89 446.74,414.89 447.56,414.89 448.37,414.89 449.18,414.89 450.00,414.89 450.81,414.89 451.63,414.89 452.44,414.89 453.25,414.89 454.07,414.89 454.88,414.89 455.70,414.89 456.51,414.89 457.32,414.89 458.14,414.89 458.95,414.89 459.77,414.89 460.58,414.89 461.39,414.89 462.21,414.89 463.02,414.89 463.84,414.89 464.65,414.89 465.46,414.89 466.28,414.89 467.09,414.89 467.91,414.89 468.72,414.89 469.53,414.89 470.35,414.89 471.16,414.89 471.98,414.89 472.79,414.89 473.60,414.89 474.42,414.89 475.23,414.89 476.05,414.89 476.86,414.89 477.67,414.89 478.49,414.89 479.30,414.89 480.12,414.89 480.93,414.89 481.74,414.89 482.56,414.89 483.37,414.89 484.19,414.89 485.00,414.89 485.81,409.96 486.63,409.61 487.44,409.35 488.26,409.11 489.07,408.90 489.88,408.72 490.70,408.56 491.51,408.42 492.33,408.31 493.14,408.21 493.95,408.12 494.77,408.06 495.58,408.00 496.40,407.96 497.21,407.93 498.02,407.91 498.84,407.90 499.65,407.89 500.47,407.89 501.28,407.90 502.09,407.92 502.91,407.94 503.72,407.96 504.54,407.99 505.35,408.02 506.16,408.05 506.98,408.09 507.79,408.13 508.61,408.17 509.42,408.21 510.23,408.25 511.05,408.30 511.86,408.34 512.68,408.39 513.49,408.43 514.30,408.48 515.12,408.52 515.93,408.57 516.75,408.61 517.56,408.65 518.37,408.70 519.19,408.74 520.00,408.78 520.82,408.83 521.63,408.87 522.44,408.91 523.26,408.95 524.07,408.99 524.89,409.02 525.70,409.06 526.51,409.10 527.33,409.13 528.14,409.17 528.96,409.20 529.77,409.23 530.58,409.26 531.40,409.30 532.21,409.33 533.03,409.35 533.84,409.38 534.65,409.41 535.47,409.44 536.28,409.46 537.10,409.49 537.91,409.51 538.72,409.53 539.54,409.56 540.35,409.58 541.17,409.60 541.98,409.62 542.79,409.64 543.61,409.66 544.42,409.68 545.24,409.69 546.05,409.71 546.86,409.73 547.68,409.74 548.49,409.76 549.31,409.77 550.12,409.79 550.93,409.80 551.75,409.81 552.56,409.82 553.38,409.84 554.19,409.85 555.00,409.86 555.82,409.87 556.63,409.88 557.45,409.89 558.26,409.90 559.07,409.91 559.89,409.92 560.70,409.93 561.52,409.93 562.33,409.94 563.14,409.95 563.96,409.96 564.77,409.96 565.59,409.97 566.40,409.98 567.21,409.98 568.03,409.99 568.84,409.99 569.66,410.00 570.47,410.00 571.28,410.01 572.10,410.01 572.91,410.02 573.73,410.02 574.54,410.03 575.35,410.03 576.17,410.03 576.98,410.04 577.80,410.04 578.61,410.05 579.42,410.05 580.24,410.05 581.05,410.05 581.87,410.06 582.68,410.06 583.49,410.06 584.31,414.98 585.12,415.33 585.94,415.61 586.75,415.86 587.56,416.07 588.38,416.26 589.19,416.42 590.01,416.56 590.82,416.68 591.63,416.78 592.45,416.86 593.26,416.93 594.08,416.99 594.89,417.03 595.70,417.06 596.52,417.09 597.33,417.10 598.15,417.10 598.96,417.10 599.77,417.09 600.59,417.08 601.40,417.06 602.22,417.04 603.03,417.01 603.84,416.98 604.66,416.94 605.47,416.91 606.29,416.87 607.10,416.83 607.91,416.79 608.73,416.75 609.54,416.70 610.36,416.66 611.17,416.62 611.98,416.57 612.80,416.53 613.61,416.48 614.43,416.44 615.24,416.39 616.05,416.35 616.87,416.31 617.68,416.26 618.50,416.22 619.31,416.18 620.12,416.14 620.94,416.10 621.75,416.06 622.57,416.02 623.38,415.98 624.19,415.94 625.01,415.91 625.82,415.87 626.64,415.84 627.45,415.81 628.26,415.77 629.08,415.74 629.89,415.71 630.71,415.68 631.52,415.65 632.33,415.62 633.15,415.60 633.96,415.57 634.78,415.55 635.59,415.52 636.40,415.50 637.22,415.47 638.03,415.45 638.85,415.43 639.66,415.41 640.47,415.39 641.29,415.37 642.10,415.35 642.92,415.33 643.73,415.32 644.54,415.30 645.36,415.28 646.17,415.27 646.99,415.25 647.80,415.24 648.61,415.22 649.43,415.21 650.24,415.20 651.06,415.18 651.87,415.17 652.68,415.16 653.50,415.15 654.31,415.14 655.13,415.13 655.94,415.12 656.75,415.11 657.57,415.10 658.38,415.09 659.20,415.08 660.01,415.08 660.82,415.07 661.64,415.06 662.45,415.05 663.27,415.05 664.08,415.04 664.89,415.03 665.71,415.03 666.52,415.02 667.34,415.02 668.15,415.01 668.96,415.01 669.78,415.00 670.59,415.00 671.41,414.99 672.22,414.99 673.03,414.98 673.85,414.98 674.66,414.98 675.48,414.97 676.29,414.97 677.10,414.96 677.92,414.96 678.73,414.96 679.55,414.96 680.36,414.95 681.17,414.95 681.99,414.95 682.80,414.94 683.62,414.94 684.43,414.94 685.24,414.94 686.06,414.94 686.87,414.93 687.69,414.93 688.50,414.93 689.31,414.93 690.13,414.93 690.94,414.93 691.76,414.92 692.57,414.92 693.38,414.92 694.20,414.92 695.01,414.92 695.83,414.92 696.64,414.92 697.45,414.91 698.27,414.91 699.08,414.91 699.90,414.91 700.71,414.91 701.52,414.91 702.34,414.91 703.15,414.91 703.97,414.91 704.78,414.91 705.59,414.91 706.41,414.91 707.22,414.90 708.04,414.90 708.85,414.90 709.66,414.90 710.48,414.90 711.29,414.90 712.11,414.90 712.92,414.90 713.73,414.90 714.55,414.90 715.36,414.90 716.18,414.90 716.99,414.90 717.80,414.90 718.62,414.90 719.43,414.90 720.25,414.90 721.06,414.90 721.87,414.90 722.69,414.90 723.50,414.90 724.32,414.90 725.13,414.90 725.94,414.90 726.76,414.90 727.57,414.90 728.39,414.90 729.20,414.90 730.01,414.89 730.83,414.89 731.64,414.89 732.46,414.89 733.27,414.89 734.08,414.89 734.90,414.89 735.71,414.89 736.53,414.89 737.34,414.89 738.15,414.89 738.97,414.89 739.78,414.89 740.60,414.89 741.41,414.89 742.22,414.89 743.04,414.89 743.85,414.89 744.67,414.89 745.48,414.89 746.29,414.89 747.11,414.89 747.92,414.89 748.74,414.89 749.55,414.89 750.36,414.89 751.18,414.89 751.99,414.89 752.81,414.89 753.62,414.89 754.43,414.89 755.25,414.89 756.06,414.89 756.88,414.89 757.69,414.89 758.50,414.89 759.32,414.89 760.13,414.89 760.95,414.89 761.76,414.89 762.57,414.89 763.39,414.89 764.20,414.89 765.02,414.89 765.83,414.89 766.64,414.89 767.46,414.89 768.27,414.89 769.09,414.89 769.90,414.89 770.71,414.89 771.53,414.89 772.34,414.89 773.16,414.89 773.97,414.89 774.78,414.89 775.60,414.89 776.41,414.89 777.23,414.89 778.04,414.89 778.85,414.89 779.67,414.89 780.48,414.89 781.30,414.89 782.11,414.89 782.92,414.89 783.74,414.89 784.55,414.89 785.37,414.89 786.18,414.89 786.99,414.89 787.81,414.89 788.62,414.89 789.44,414.89 790.25,414.89 791.06,414.89 791.88,414.89 792.69,414.89 793.51,414.89 794.32,414.89 795.13,414.89 795.95,414.89 796.76,414.89 797.58,414.89 798.39,414.89 799.20,414.89 800.02,414.89 800.83,414.89 801.65,414.89 802.46,414.89 803.27,414.89 804.09,414.89 804.90,414.89 805.72,414.89 806.53,414.89 807.34,414.89 808.16,414.89 808.97,414.89 809.79,414.89 810.60,414.89 811.41,414.89 812.23,414.89 813.04,414.89 813.86,414.89 814.67,414.89 815.48,414.89 816.30,414.89 817.11,414.89 817.93,414.89 818.74,414.89 819.55,414.89 820.37,414.89 821.18,414.89 822.00,414.89 822.81,414.89 823.62,414.89 824.44,414.89 825.25,414.89 826.07,414.89 826.88,414.89 827.69,414.89 828.51,414.89 829.32,414.89 830.14,414.89 830.95,414.89 831.76,414.89 832.58,414.89 833.39,414.89 834.21,414.89 835.02,414.89 835.83,414.89 836.65,414.89 837.46,414.89 838.28,414.89 839.09,414.89 839.90,414.89 840.72,414.89 841.53,414.89 842.35,414.89 843.16,414.89 843.97,414.89 844.79,414.89 845.60,414.89 846.42,414.89 847.23,414.89 848.04,414.89 848.86,414.89 849.67,414.89 850.49,414.89 851.30,414.89 852.11,414.89 852.93,414.89 853.74,414.89 854.56,414.89 855.37,414.89 856.18,414.89 857.00,414.89 857.81,414.89 858.63,414.89 859.44,414.89 860.25,414.89 861.07,414.89 861.88,414.89 862.70,414.89 863.51,414.89 864.32,414.89 865.14,414.89 865.95,414.89 866.77,414.89 867.58,414.89 868.39,414.89 869.21,414.89 870.02,414.89 870.84,414.89 871.65,414.89 872.46,414.89 873.28,414.89 874.09,414.89 874.91,414.89 875.72,414.89 876.53,414.89 877.35,414.89 878.16,414.89 878.98,414.89 879.79,414.89 880.60,414.89 881.42,414.89 882.23,414.89 883.05,414.89 883.86,414.89 884.67,414.89 885.49,414.89 886.30,414.89 887.12,414.89 887.93,414.89 888.74,414.89 889.56,414.89 890.37,414.89 891.19,414.89 892.00,414.89" fill="none" stroke="#dc2626" stroke-width="2.5" stroke-linejoin="round" stroke-linecap="round"/>
<line x1="78" y1="496" x2="106" y2="496" stroke="#2563eb" stroke-width="3"/><text x="114" y="500" font-size="13" fill="#111827">PID</text><line x1="248" y1="496" x2="276" y2="496" stroke="#dc2626" stroke-width="3"/><text x="284" y="500" font-size="13" fill="#111827">ML Neural Network</text>
</svg>
