<svg xmlns="http://www.w3.org/2000/svg" width="920" height="520" viewBox="0 0 920 520">
<rect width="100%" height="100%" fill="#ffffff"/>
<text x="460.0" y="30" text-anchor="middle" font-size="20" font-weight="700" fill="#111827">DC Motor Speed Response</text>
<line x1="78.00" y1="54" x2="78.00" y2="444" stroke="#e5e7eb" stroke-width="1"/><text x="78.00" y="472" text-anchor="middle" font-size="12" fill="#374151">0.0</text><line x1="240.80" y1="54" x2="240.80" y2="444" stroke="#e5e7eb" stroke-width="1"/><text x="240.80" y="472" text-anchor="middle" font-size="12" fill="#374151">2.0</text><line x1="403.60" y1="54" x2="403.60" y2="444" stroke="#e5e7eb" stroke-width="1"/><text x="403.60" y="472" text-anchor="middle" font-size="12" fill="#374151">4.0</text><line x1="566.40" y1="54" x2="566.40" y2="444" stroke="#e5e7eb" stroke-width="1"/><text x="566.40" y="472" text-anchor="middle" font-size="12" fill="#374151">6.0</text><line x1="729.20" y1="54" x2="729.20" y2="444" stroke="#e5e7eb" stroke-width="1"/><text x="729.20" y="472" text-anchor="middle" font-size="12" fill="#374151">8.0</text><line x1="892.00" y1="54" x2="892.00" y2="444" stroke="#e5e7eb" stroke-width="1"/><text x="892.00" y="472" text-anchor="middle" font-size="12" fill="#374151">10.0</text><line x1="78" y1="444.00" x2="892" y2="444.00" stroke="#e5e7eb" stroke-width="1"/><text x="66" y="448.00" text-anchor="end" font-size="12" fill="#374151">-0.08</text><line x1="78" y1="366.00" x2="892" y2="366.00" stroke="#e5e7eb" stroke-width="1"/><text x="66" y="370.00" text-anchor="end" font-size="12" fill="#374151">0.16</text><line x1="78" y1="288.00" x2="892" y2="288.00" stroke="#e5e7eb" stroke-width="1"/><text x="66" y="292.00" text-anchor="end" font-size="12" fill="#374151">0.39</text><line x1="78" y1="210.00" x2="892" y2="210.00" stroke="#e5e7eb" stroke-width="1"/><text x="66" y="214.00" text-anchor="end" font-size="12" fill="#374151">0.63</text><line x1="78" y1="132.00" x2="892" y2="132.00" stroke="#e5e7eb" stroke-width="1"/><text x="66" y="136.00" text-anchor="end" font-size="12" fill="#374151">0.87</text><line x1="78" y1="54.00" x2="892" y2="54.00" stroke="#e5e7eb" stroke-width="1"/><text x="66" y="58.00" text-anchor="end" font-size="12" fill="#374151">1.10</text>
<line x1="78" y1="54" x2="78" y2="444" stroke="#111827" stroke-width="1.5"/>
<line x1="78" y1="444" x2="892" y2="444" stroke="#111827" stroke-width="1.5"/>
<text x="460.0" y="478" text-anchor="middle" font-size="14" fill="#111827">Time (s)</text>
<text transform="translate(20 260.0) rotate(-90)" text-anchor="middle" font-size="14" fill="#111827">Speed (rad/s)</text>
<polyline points="78.00,87.95 78.81,87.95 79.63,87.95 80.44,87.95 81.26,87.95 82.07,87.95 82.88,87.95 83.70,87.95 84.51,87.95 85.33,87.95 86.14,87.95 86.95,87.95 87.77,87.95 88.58,87.95 89.40,87.95 90.21,87.95 91.02,87.95 91.84,87.95 92.65,87.95 93.47,87.95 94.28,87.95 95.09,87.95 95.91,87.95 96.72,87.95 97.54,87.95 98.35,87.95 99.16,87.95 99.98,87.95 100.79,87.95 101.61,87.95 102.42,87.95 103.23,87.95 104.05,87.95 104.86,87.95 105.68,87.95 106.49,87.95 107.30,87.95 108.12,87.95 108.93,87.95 109.75,87.95 110.56,87.95 111.37,87.95 112.19,87.95 113.00,87.95 113.82,87.95 114.63,87.95 115.44,87.95 116.26,87.95 117.07,87.95 117.89,87.95 118.70,87.95 119.51,87.95 120.33,87.95 121.14,87.95 121.96,87.95 122.77,87.95 123.58,87.95 124.40,87.95 125.21,87.95 126.03,87.95 126.84,87.95 127.65,87.95 128.47,87.95 129.28,87.95 130.10,87.95 130.91,87.95 131.72,87.95 132.54,87.95 133.35,87.95 134.17,87.95 134.98,87.95 135.79,87.95 136.61,87.95 137.42,87.95 138.24,87.95 139.05,87.95 139.86,87.95 140.68,87.95 141.49,87.95 142.31,87.95 143.12,87.95 143.93,87.95 144.75,87.95 145.56,87.95 146.38,87.95 147.19,87.95 148.00,87.95 148.82,87.95 149.63,87.95 150.45,87.95 151.26,87.95 152.07,87.95 152.89,87.95 153.70,87.95 154.52,87.95 155.33,87.95 156.14,87.95 156.96,87.95 157.77,87.95 158.59,87.95 159.40,87.95 160.21,87.95 161.03,87.95 161.84,87.95 162.66,87.95 163.47,87.95 164.28,87.95 165.10,87.95 165.91,87.95 166.73,87.95 167.54,87.95 168.35,87.95 169.17,87.95 169.98,87.95 170.80,87.95 171.61,87.95 172.42,87.95 173.24,87.95 174.05,87.95 174.87,87.95 175.68,87.95 176.49,87.95 177.31,87.95 178.12,87.95 178.94,87.95 179.75,87.95 180.56,87.95 181.38,87.95 182.19,87.95 183.01,87.95 183.82,87.95 184.63,87.95 185.45,87.95 186.26,87.95 187.08,87.95 187.89,87.95 188.70,87.95 189.52,87.95 190.33,87.95 191.15,87.95 191.96,87.95 192.77,87.95 193.59,87.95 194.40,87.95 195.22,87.95 196.03,87.95 196.84,87.95 197.66,87.95 198.47,87.95 199.29,87.95 200.10,87.95 200.91,87.95 201.73,87.95 202.54,87.95 203.36,87.95 204.17,87.95 204.98,87.95 205.80,87.95 206.61,87.95 207.43,87.95 208.24,87.95 209.05,87.95 209.87,87.95 210.68,87.95 211.50,87.95 212.31,87.95 213.12,87.95 213.94,87.95 214.75,87.95 215.57,87.95 216.38,87.95 217.19,87.95 218.01,87.95 218.82,87.95 219.64,87.95 220.45,87.95 221.26,87.95 222.08,87.95 222.89,87.95 223.71,87.95 224.52,87.95 225.33,87.95 226.15,87.95 226.96,87.95 227.78,87.95 228.59,87.95 229.40,87.95 230.22,87.95 231.03,87.95 231.85,87.95 232.66,87.95 233.47,87.95 234.29,87.95 235.10,87.95 235.92,87.95 236.73,87.95 237.54,87.95 238.36,87.95 239.17,87.95 239.99,87.95 240.80,87.95 241.61,87.95 242.43,87.95 243.24,87.95 244.06,87.95 244.87,87.95 245.68,87.95 246.50,87.95 247.31,87.95 248.13,87.95 248.94,87.95 249.75,87.95 250.57,87.95 251.38,87.95 252.20,87.95 253.01,87.95 253.82,87.95 254.64,87.95 255.45,87.95 256.27,87.95 257.08,87.95 257.89,87.95 258.71,87.95 259.52,87.95 260.34,87.95 261.15,87.95 261.96,87.95 262.78,87.95 263.59,87.95 264.41,87.95 265.22,87.95 266.03,87.95 266.85,87.95 267.66,87.95 268.48,87.95 269.29,87.95 270.10,87.95 270.92,87.95 271.73,87.95 272.55,87.95 273.36,87.95 274.17,87.95 274.99,87.95 275.80,87.95 276.62,87.95 277.43,87.95 278.24,87.95 279.06,87.95 279.87,87.95 280.69,87.95 281.50,87.95 282.31,87.95 283.13,87.95 283.94,87.95 284.76,87.95 285.57,87.95 286.38,87.95 287.20,87.95 288.01,87.95 288.83,87.95 289.64,87.95 290.45,87.95 291.27,87.95 292.08,87.95 292.90,87.95 293.71,87.95 294.52,87.95 295.34,87.95 296.15,87.95 296.97,87.95 297.78,87.95 298.59,87.95 299.41,87.95 300.22,87.95 301.04,87.95 301.85,87.95 302.66,87.95 303.48,87.95 304.29,87.95 305.11,87.95 305.92,87.95 306.73,87.95 307.55,87.95 308.36,87.95 309.18,87.95 309.99,87.95 310.80,87.95 311.62,87.95 312.43,87.95 313.25,87.95 314.06,87.95 314.87,87.95 315.69,87.95 316.50,87.95 317.32,87.95 318.13,87.95 318.94,87.95 319.76,87.95 320.57,87.95 321.39,87.95 322.20,87.95 323.01,87.95 323.83,87.95 324.64,87.95 325.46,87.95 326.27,87.95 327.08,87.95 327.90,87.95 328.71,87.95 329.53,87.95 330.34,87.95 331.15,87.95 331.97,87.95 332.78,87.95 333.60,87.95 334.41,87.95 335.22,87.95 336.04,87.95 336.85,87.95 337.67,87.95 338.48,87.95 339.29,87.95 340.11,87.95 340.92,87.95 341.74,87.95 342.55,87.95 343.36,87.95 344.18,87.95 344.99,87.95 345.81,87.95 346.62,87.95 347.43,87.95 348.25,87.95 349.06,87.95 349.88,87.95 350.69,87.95 351.50,87.95 352.32,87.95 353.13,87.95 353.95,87.95 354.76,87.95 355.57,87.95 356.39,87.95 357.20,87.95 358.02,87.95 358.83,87.95 359.64,87.95 360.46,87.95 361.27,87.95 362.09,87.95 362.90,87.95 363.71,87.95 364.53,87.95 365.34,87.95 366.16,87.95 366.97,87.95 367.78,87.95 368.60,87.95 369.41,87.95 370.23,87.95 371.04,87.95 371.85,87.95 372.67,87.95 373.48,87.95 374.30,87.95 375.11,87.95 375.92,87.95 376.74,87.95 377.55,87.95 378.37,87.95 379.18,87.95 379.99,87.95 380.81,87.95 381.62,87.95 382.44,87.95 383.25,87.95 384.06,87.95 384.88,87.95 385.69,87.95 386.51,87.95 387.32,87.95 388.13,87.95 388.95,87.95 389.76,87.95 390.58,87.95 391.39,87.95 392.20,87.95 393.02,87.95 393.83,87.95 394.65,87.95 395.46,87.95 396.27,87.95 397.09,87.95 397.90,87.95 398.72,87.95 399.53,87.95 400.34,87.95 401.16,87.95 401.97,87.95 402.79,87.95 403.60,87.95 404.41,87.95 405.23,87.95 406.04,87.95 406.86,87.95 407.67,87.95 408.48,87.95 409.30,87.95 410.11,87.95 410.93,87.95 411.74,87.95 412.55,87.95 413.37,87.95 414.18,87.95 415.00,87.95 415.81,87.95 416.62,87.95 417.44,87.95 418.25,87.95 419.07,87.95 419.88,87.95 420.69,87.95 421.51,87.95 422.32,87.95 423.14,87.95 423.95,87.95 424.76,87.95 425.58,87.95 426.39,87.95 427.21,87.95 428.02,87.95 428.83,87.95 429.65,87.95 430.46,87.95 431.28,87.95 432.09,87.95 432.90,87.95 433.72,87.95 434.53,87.95 435.35,87.95 436.16,87.95 436.97,87.95 437.79,87.95 438.60,87.95 439.42,87.95 440.23,87.95 441.04,87.95 441.86,87.95 442.67,87.95 443.49,87.95 444.30,87.95 445.11,87.95 445.93,87.95 446.74,87.95 447.56,87.95 448.37,87.95 449.18,87.95 450.00,87.95 450.81,87.95 451.63,87.95 452.44,87.95 453.25,87.95 454.07,87.95 454.88,87.95 455.70,87.95 456.51,87.95 457.32,87.95 458.14,87.95 458.95,87.95 459.77,87.95 460.58,87.95 461.39,87.95 462.21,87.95 463.02,87.95 463.84,87.95 464.65,87.95 465.46,87.95 466.28,87.95 467.09,87.95 467.91,87.95 468.72,87.95 469.53,87.95 470.35,87.95 471.16,87.95 471.98,87.95 472.79,87.95 473.60,87.95 474.42,87.95 475.23,87.95 476.05,87.95 476.86,87.95 477.67,87.95 478.49,87.95 479.30,87.95 480.12,87.95 480.93,87.95 481.74,87.95 482.56,87.95 483.37,87.95 484.19,87.95 485.00,87.95 485.81,87.95 486.63,87.95 487.44,87.95 488.26,87.95 489.07,87.95 489.88,87.95 490.70,87.95 491.51,87.95 492.33,87.95 493.14,87.95 493.95,87.95 494.77,87.95 495.58,87.95 496.40,87.95 497.21,87.95 498.02,87.95 498.84,87.95 499.65,87.95 500.47,87.95 501.28,87.95 502.09,87.95 502.91,87.95 503.72,87.95 504.54,87.95 505.35,87.95 506.16,87.95 506.98,87.95 507.79,87.95 508.61,87.95 509.42,87.95 510.23,87.95 511.05,87.95 511.86,87.95 512.68,87.95 513.49,87.95 514.30,87.95 515.12,87.95 515.93,87.95 516.75,87.95 517.56,87.95 518.37,87.95 519.19,87.95 520.00,87.95 520.82,87.95 521.63,87.95 522.44,87.95 523.26,87.95 524.07,87.95 524.89,87.95 525.70,87.95 526.51,87.95 527.33,87.95 528.14,87.95 528.96,87.95 529.77,87.95 530.58,87.95 531.40,87.95 532.21,87.95 533.03,87.95 533.84,87.95 534.65,87.95 535.47,87.95 536.28,87.95 537.10,87.95 537.91,87.95 538.72,87.95 539.54,87.95 540.35,87.95 541.17,87.95 541.98,87.95 542.79,87.95 543.61,87.95 544.42,87.95 545.24,87.95 546.05,87.95 546.86,87.95 547.68,87.95 548.49,87.95 549.31,87.95 550.12,87.95 550.93,87.95 551.75,87.95 552.56,87.95 553.38,87.95 554.19,87.95 555.00,87.95 555.82,87.95 556.63,87.95 557.45,87.95 558.26,87.95 559.07,87.95 559.89,87.95 560.70,87.95 561.52,87.95 562.33,87.95 563.14,87.95 563.96,87.95 564.77,87.95 565.59,87.95 566.40,87.95 567.21,87.95 568.03,87.95 568.84,87.95 569.66,87.95 570.47,87.95 571.28,87.95 572.10,87.95 572.91,87.95 573.73,87.95 574.54,87.95 575.35,87.95 576.17,87.95 576.98,87.95 577.80,87.95 578.61,87.95 579.42,87.95 580.24,87.95 581.05,87.95 581.87,87.95 582.68,87.95 583.49,87.95 584.31,87.95 585.12,87.95 585.94,87.95 586.75,87.95 587.56,87.95 588.38,87.95 589.19,87.95 590.01,87.95 590.82,87.95 591.63,87.95 592.45,87.95 593.26,87.95 594.08,87.95 594.89,87.95 595.70,87.95 596.52,87.95 597.33,87.95 598.15,87.95 598.96,87.95 599.77,87.95 600.59,87.95 601.40,87.95 602.22,87.95 603.03,87.95 603.84,87.95 604.66,87.95 605.47,87.95 606.29,87.95 607.10,87.95 607.91,87.95 608.73,87.95 609.54,87.95 610.36,87.95 611.17,87.95 611.98,87.95 612.80,87.95 613.61,87.95 614.43,87.95 615.24,87.95 616.05,87.95 616.87,87.95 617.68,87.95 618.50,87.95 619.31,87.95 620.12,87.95 620.94,87.95 621.75,87.95 622.57,87.95 623.38,87.95 624.19,87.95 625.01,87.95 625.82,87.95 626.64,87.95 627.45,87.95 628.26,87.95 629.08,87.95 629.89,87.95 630.71,87.95 631.52,87.95 632.33,87.95 633.15,87.95 633.96,87.95 634.78,87.95 635.59,87.95 636.40,87.95 637.22,87.95 638.03,87.95 638.85,87.95 639.66,87.95 640.47,87.95 641.29,87.95 642.10,87.95 642.92,87.95 643.73,87.95 644.54,87.95 645.36,87.95 646.17,87.95 646.99,87.95 647.80,87.95 648.61,87.95 649.43,87.95 650.24,87.95 651.06,87.95 651.87,87.95 652.68,87.95 653.50,87.95 654.31,87.95 655.13,87.95 655.94,87.95 656.75,87.95 657.57,87.95 658.38,87.95 659.20,87.95 660.01,87.95 660.82,87.95 661.64,87.95 662.45,87.95 663.27,87.95 664.08,87.95 664.89,87.95 665.71,87.95 666.52,87.95 667.34,87.95 668.15,87.95 668.96,87.95 669.78,87.95 670.59,87.95 671.41,87.95 672.22,87.95 673.03,87.95 673.85,87.95 674.66,87.95 675.48,87.95 676.29,87.95 677.10,87.95 677.92,87.95 678.73,87.95 679.55,87.95 680.36,87.95 681.17,87.95 681.99,87.95 682.80,87.95 683.62,87.95 684.43,87.95 685.24,87.95 686.06,87.95 686.87,87.95 687.69,87.95 688.50,87.95 689.31,87.95 690.13,87.95 690.94,87.95 691.76,87.95 692.57,87.95 693.38,87.95 694.20,87.95 695.01,87.95 695.83,87.95 696.64,87.95 697.45,87.95 698.27,87.95 699.08,87.95 699.90,87.95 700.71,87.95 701.52,87.95 702.34,87.95 703.15,87.95 703.97,87.95 704.78,87.95 705.59,87.95 706.41,87.95 707.22,87.95 708.04,87.95 708.85,87.95 709.66,87.95 710.48,87.95 711.29,87.95 712.11,87.95 712.92,87.95 713.73,87.95 714.55,87.95 715.36,87.95 716.18,87.95 716.99,87.95 717.80,87.95 718.62,87.95 719.43,87.95 720.25,87.95 721.06,87.95 721.87,87.95 722.69,87.95 723.50,87.95 724.32,87.95 725.13,87.95 725.94,87.95 726.76,87.95 727.57,87.95 728.39,87.95 729.20,87.95 730.01,87.95 730.83,87.95 731.64,87.95 732.46,87.95 733.27,87.95 734.08,87.95 734.90,87.95 735.71,87.95 736.53,87.95 737.34,87.95 738.15,87.95 738.97,87.95 739.78,87.95 740.60,87.95 741.41,87.95 742.22,87.95 743.04,87.95 743.85,87.95 744.67,87.95 745.48,87.95 746.29,87.95 747.11,87.95 747.92,87.95 748.74,87.95 749.55,87.95 750.36,87.95 751.18,87.95 751.99,87.95 752.81,87.95 753.62,87.95 754.43,87.95 755.25,87.95 756.06,87.95 756.88,87.95 757.69,87.95 758.50,87.95 759.32,87.95 760.13,87.95 760.95,87.95 761.76,87.95 762.57,87.95 763.39,87.95 764.20,87.95 765.02,87.95 765.83,87.95 766.64,87.95 767.46,87.95 768.27,87.95 769.09,87.95 769.90,87.95 770.71,87.95 771.53,87.95 772.34,87.95 773.16,87.95 773.97,87.95 774.78,87.95 775.60,87.95 776.41,87.95 777.23,87.95 778.04,87.95 778.85,87.95 779.67,87.95 780.48,87.95 781.30,87.95 782.11,87.95 782.92,87.95 783.74,87.95 784.55,87.95 785.37,87.95 786.18,87.95 786.99,87.95 787.81,87.95 788.62,87.95 789.44,87.95 790.25,87.95 791.06,87.95 791.88,87.95 792.69,87.95 793.51,87.95 794.32,87.95 795.13,87.95 795.95,87.95 796.76,87.95 797.58,87.95 798.39,87.95 799.20,87.95 800.02,87.95 800.83,87.95 801.65,87.95 802.46,87.95 803.27,87.95 804.09,87.95 804.90,87.95 805.72,87.95 806.53,87.95 807.34,87.95 808.16,87.95 808.97,87.95 809.79,87.95 810.60,87.95 811.41,87.95 812.23,87.95 813.04,87.95 813.86,87.95 814.67,87.95 815.48,87.95 816.30,87.95 817.11,87.95 817.93,87.95 818.74,87.95 819.55,87.95 820.37,87.95 821.18,87.95 822.00,87.95 822.81,87.95 823.62,87.95 824.44,87.95 825.25,87.95 826.07,87.95 826.88,87.95 827.69,87.95 828.51,87.95 829.32,87.95 830.14,87.95 830.95,87.95 831.76,87.95 832.58,87.95 833.39,87.95 834.21,87.95 835.02,87.95 835.83,87.95 836.65,87.95 837.46,87.95 838.28,87.95 839.09,87.95 839.90,87.95 840.72,87.95 841.53,87.95 842.35,87.95 843.16,87.95 843.97,87.95 844.79,87.95 845.60,87.95 846.42,87.95 847.23,87.95 848.04,87.95 848.86,87.95 849.67,87.95 850.49,87.95 851.30,87.95 852.11,87.95 852.93,87.95 853.74,87.95 854.56,87.95 855.37,87.95 856.18,87.95 857.00,87.95 857.81,87.95 858.63,87.95 859.44,87.95 860.25,87.95 861.07,87.95 861.88,87.95 862.70,87.95 863.51,87.95 864.32,87.95 865.14,87.95 865.95,87.95 866.77,87.95 867.58,87.95 868.39,87.95 869.21,87.95 870.02,87.95 870.84,87.95 871.65,87.95 872.46,87.95 873.28,87.95 874.09,87.95 874.91,87.95 875.72,87.95 876.53,87.95 877.35,87.95 878.16,87.95 878.98,87.95 879.79,87.95 880.60,87.95 881.42,87.95 882.23,87.95 883.05,87.95 883.86,87.95 884.67,87.95 885.49,87.95 886.30,87.95 887.12,87.95 887.93,87.95 888.74,87.95 889.56,87.95 890.37,87.95 891.19,87.95 892.00,87.95" fill="none" stroke="#111827" stroke-width="2.5" stroke-linejoin="round" stroke-linecap="round"/><polyline points="78.00,417.10 78.81,416.34 79.63,414.36 80.44,411.46 81.26,407.76 82.07,403.35 82.88,398.34 83.70,392.80 84.51,386.81 85.33,380.44 86.14,373.75 86.95,366.80 87.77,359.64 88.58,352.32 89.40,344.87 90.21,337.34 91.02,329.77 91.84,322.17 92.65,314.58 93.47,307.03 94.28,299.52 95.09,292.09 95.91,284.75 96.72,277.51 97.54,270.39 98.35,263.39 99.16,256.53 99.98,249.81 100.79,243.24 101.61,236.83 102.42,230.57 103.23,224.48 104.05,218.56 104.86,212.80 105.68,207.20 106.49,201.78 107.30,196.52 108.12,191.43 108.93,186.51 109.75,181.75 110.56,177.15 111.37,172.71 112.19,168.43 113.00,164.31 113.82,160.33 114.63,156.51 115.44,152.82 116.26,149.28 117.07,145.88 117.89,142.62 118.70,139.48 119.51,136.47 120.33,133.59 121.14,130.83 121.96,128.18 122.77,125.65 123.58,123.22 124.40,120.91 125.21,118.69 126.03,116.58 126.84,114.56 127.65,112.63 128.47,110.80 129.28,109.05 130.10,107.38 130.91,105.79 131.72,104.28 132.54,102.84 133.35,101.48 134.17,100.18 134.98,98.95 135.79,97.78 136.61,96.67 137.42,95.63 138.24,94.63 139.05,93.69 139.86,92.80 140.68,91.96 141.49,91.17 142.31,90.42 143.12,89.72 143.93,89.06 144.75,88.43 145.56,87.85 146.38,87.30 147.19,86.78 148.00,86.30 148.82,85.84 149.63,85.42 150.45,85.03 151.26,84.66 152.07,84.32 152.89,84.00 153.70,83.71 154.52,83.44 155.33,83.19 156.14,82.96 156.96,82.75 157.77,82.55 158.59,82.38 159.40,82.22 160.21,82.07 161.03,81.94 161.84,81.83 162.66,81.73 163.47,81.64 164.28,81.56 165.10,81.49 165.91,81.43 166.73,81.39 167.54,81.35 168.35,81.32 169.17,81.30 169.98,81.28 170.80,81.28 171.61,81.28 172.42,81.29 173.24,81.30 174.05,81.32 174.87,81.34 175.68,81.37 176.49,81.40 177.31,81.44 178.12,81.48 178.94,81.53 179.75,81.57 180.56,81.63 181.38,81.68 182.19,81.74 183.01,81.80 183.82,81.86 184.63,81.92 185.45,81.98 186.26,82.05 187.08,82.12 187.89,82.19 188.70,82.26 189.52,82.33 190.33,82.40 191.15,82.48 191.96,82.55 192.77,82.63 193.59,82.70 194.40,82.78 195.22,82.85 196.03,82.93 196.84,83.00 197.66,83.08 198.47,83.15 199.29,83.23 200.10,83.30 200.91,83.38 201.73,83.45 202.54,83.53 203.36,83.60 204.17,83.67 204.98,83.75 205.80,83.82 206.61,83.89 207.43,83.96 208.24,84.03 209.05,84.10 209.87,84.17 210.68,84.24 211.50,84.30 212.31,84.37 213.12,84.44 213.94,84.50 214.75,84.56 215.57,84.63 216.38,84.69 217.19,84.75 218.01,84.81 218.82,84.87 219.64,84.93 220.45,84.99 221.26,85.05 222.08,85.10 222.89,85.16 223.71,85.21 224.52,85.27 225.33,85.32 226.15,85.37 226.96,85.42 227.78,85.48 228.59,85.52 229.40,85.57 230.22,85.62 231.03,85.67 231.85,85.72 232.66,85.76 233.47,85.81 234.29,85.85 235.10,85.89 235.92,85.94 236.73,85.98 237.54,86.02 238.36,86.06 239.17,86.10 239.99,86.14 240.80,86.17 241.61,86.21 242.43,86.25 243.24,86.28 244.06,86.32 244.87,86.35 245.68,86.39 246.50,86.42 247.31,86.45 248.13,86.49 248.94,86.52 249.75,86.55 250.57,86.58 251.38,86.61 252.20,86.64 253.01,86.66 253.82,86.69 254.64,86.72 255.45,86.75 256.27,86.77 257.08,86.80 257.89,86.82 258.71,86.85 259.52,86.87 260.34,86.89 261.15,86.92 261.96,86.94 262.78,86.96 263.59,86.98 264.41,87.00 265.22,87.03 266.03,87.05 266.85,87.07 267.66,87.09 268.48,87.10 269.29,87.12 270.10,87.14 270.92,87.16 271.73,87.18 272.55,87.19 273.36,87.21 274.17,87.23 274.99,87.24 275.80,87.26 276.62,87.27 277.43,87.29 278.24,87.30 279.06,87.32 279.87,87.33 280.69,87.35 281.50,87.36 282.31,87.37 283.13,87.39 283.94,87.40 284.76,87.41 285.57,87.42 286.38,87.43 287.20,87.45 288.01,87.46 288.83,87.47 289.64,87.48 290.45,87.49 291.27,87.50 292.08,87.51 292.90,87.52 293.71,87.53 294.52,87.54 295.34,87.55 296.15,87.56 296.97,87.57 297.78,87.57 298.59,87.58 299.41,87.59 300.22,87.60 301.04,87.61 301.85,87.62 302.66,87.62 303.48,87.63 304.29,87.64 305.11,87.64 305.92,87.65 306.73,87.66 307.55,87.67 308.36,87.67 309.18,87.68 309.99,87.68 310.80,87.69 311.62,87.70 312.43,87.70 313.25,87.71 314.06,87.71 314.87,87.72 315.69,87.72 316.50,87.73 317.32,87.73 318.13,87.74 318.94,87.74 319.76,87.75 320.57,87.75 321.39,87.76 322.20,87.76 323.01,87.77 323.83,87.77 324.64,87.77 325.46,87.78 326.27,87.78 327.08,87.79 327.90,87.79 328.71,87.79 329.53,87.80 330.34,87.80 331.15,87.80 331.97,87.81 332.78,87.81 333.60,87.81 334.41,87.82 335.22,87.82 336.04,87.82 336.85,87.83 337.67,87.83 338.48,87.83 339.29,87.83 340.11,87.84 340.92,87.84 341.74,87.84 342.55,87.84 343.36,87.85 344.18,87.85 344.99,87.85 345.81,87.85 346.62,87.86 347.43,87.86 348.25,87.86 349.06,87.86 349.88,87.86 350.69,87.87 351.50,87.87 352.32,87.87 353.13,87.87 353.95,87.87 354.76,87.88 355.57,87.88 356.39,87.88 357.20,87.88 358.02,87.88 358.83,87.88 359.64,87.89 360.46,87.89 361.27,87.89 362.09,87.89 362.90,87.89 363.71,87.89 364.53,87.89 365.34,87.90 366.16,87.90 366.97,87.90 367.78,87.90 368.60,87.90 369.41,87.90 370.23,87.90 371.04,87.90 371.85,87.90 372.67,87.91 373.48,87.91 374.30,87.91 375.11,87.91 375.92,87.91 376.74,87.91 377.55,87.91 378.37,87.91 379.18,87.91 379.99,87.91 380.81,87.92 381.62,87.92 382.44,87.92 383.25,87.92 384.06,87.92 384.88,87.92 385.69,87.92 386.51,87.92 387.32,87.92 388.13,87.92 388.95,87.92 389.76,87.92 390.58,87.92 391.39,87.92 392.20,87.93 393.02,87.93 393.83,87.93 394.65,87.93 395.46,87.93 396.27,87.93 397.09,87.93 397.90,87.93 398.72,87.93 399.53,87.93 400.34,87.93 401.16,87.93 401.97,87.93 402.79,87.93 403.60,87.93 404.41,87.93 405.23,87.93 406.04,87.93 406.86,87.93 407.67,87.93 408.48,87.93 409.30,87.94 410.11,87.94 410.93,87.94 411.74,87.94 412.55,87.94 413.37,87.94 414.18,87.94 415.00,87.94 415.81,87.94 416.62,87.94 417.44,87.94 418.25,87.94 419.07,87.94 419.88,87.94 420.69,87.94 421.51,87.94 422.32,87.94 423.14,87.94 423.95,87.94 424.76,87.94 425.58,87.94 426.39,87.94 427.21,87.94 428.02,87.94 428.83,87.94 429.65,87.94 430.46,87.94 431.28,87.94 432.09,87.94 432.90,87.94 433.72,87.94 434.53,87.94 435.35,87.94 436.16,87.94 436.97,87.94 437.79,87.94 438.60,87.94 439.42,87.94 440.23,87.94 441.04,87.94 441.86,87.94 442.67,87.94 443.49,87.94 444.30,87.95 445.11,87.95 445.93,87.95 446.74,87.95 447.56,87.95 448.37,87.95 449.18,87.95 450.00,87.95 450.81,87.95 451.63,87.95 452.44,87.95 453.25,87.95 454.07,87.95 454.88,87.95 455.70,87.95 456.51,87.95 457.32,87.95 458.14,87.95 458.95,87.95 459.77,87.95 460.58,87.95 461.39,87.95 462.21,87.95 463.02,87.95 463.84,87.95 464.65,87.95 465.46,87.95 466.28,87.95 467.09,87.95 467.91,87.95 468.72,87.95 469.53,87.95 470.35,87.95 471.16,87.95 471.98,87.95 472.79,87.95 473.60,87.95 474.42,87.95 475.23,87.95 476.05,87.95 476.86,87.95 477.67,87.95 478.49,87.95 479.30,87.95 480.12,87.95 480.93,87.95 481.74,87.95 482.56,87.95 483.37,87.95 484.19,87.95 485.00,87.95 485.81,88.58 486.63,89.14 487.44,89.63 488.26,90.07 489.07,90.45 489.88,90.78 490.70,91.07 491.51,91.31 492.33,91.52 493.14,91.69 493.95,91.83 494.77,91.95 495.58,92.03 496.40,92.10 497.21,92.15 498.02,92.17 498.84,92.18 499.65,92.18 500.47,92.16 501.28,92.13 502.09,92.09 502.91,92.04 503.72,91.99 504.54,91.92 505.35,91.85 506.16,91.78 506.98,91.70 507.79,91.62 508.61,91.53 509.42,91.45 510.23,91.36 511.05,91.27 511.86,91.18 512.68,91.08 513.49,90.99 514.30,90.90 515.12,90.81 515.93,90.72 516.75,90.63 517.56,90.54 518.37,90.45 519.19,90.36 520.00,90.28 520.82,90.20 521.63,90.11 522.44,90.03 523.26,89.96 524.07,89.88 524.89,89.81 525.70,89.73 526.51,89.66 527.33,89.59 528.14,89.53 528.96,89.46 529.77,89.40 530.58,89.34 531.40,89.28 532.21,89.22 533.03,89.17 533.84,89.12 534.65,89.06 535.47,89.02 536.28,88.97 537.10,88.92 537.91,88.88 538.72,88.83 539.54,88.79 540.35,88.75 541.17,88.71 541.98,88.68 542.79,88.64 543.61,88.61 544.42,88.58 545.24,88.55 546.05,88.52 546.86,88.49 547.68,88.46 548.49,88.43 549.31,88.41 550.12,88.38 550.93,88.36 551.75,88.34 552.56,88.32 553.38,88.30 554.19,88.28 555.00,88.26 555.82,88.24 556.63,88.22 557.45,88.21 558.26,88.19 559.07,88.18 559.89,88.16 560.70,88.15 561.52,88.14 562.33,88.12 563.14,88.11 563.96,88.10 564.77,88.09 565.59,88.08 566.40,88.07 567.21,88.06 568.03,88.05 568.84,88.05 569.66,88.04 570.47,88.03 571.28,88.02 572.10,88.02 572.91,88.01 573.73,88.00 574.54,88.00 575.35,87.99 576.17,87.99 576.98,87.98 577.80,87.98 578.61,87.98 579.42,87.97 580.24,87.97 581.05,87.96 581.87,87.96 582.68,87.96 583.49,87.95 584.31,87.33 585.12,86.76 585.94,86.26 586.75,85.83 587.56,85.44 588.38,85.11 589.19,84.82 590.01,84.58 590.82,84.37 591.63,84.19 592.45,84.05 593.26,83.94 594.08,83.85 594.89,83.78 595.70,83.73 596.52,83.71 597.33,83.69 598.15,83.70 598.96,83.72 599.77,83.74 600.59,83.78 601.40,83.83 602.22,83.89 603.03,83.95 603.84,84.02 604.66,84.09 605.47,84.17 606.29,84.25 607.10,84.34 607.91,84.43 608.73,84.51 609.54,84.60 610.36,84.70 611.17,84.79 611.98,84.88 612.80,84.97 613.61,85.06 614.43,85.15 615.24,85.25 616.05,85.33 616.87,85.42 617.68,85.51 618.50,85.59 619.31,85.68 620.12,85.76 620.94,85.84 621.75,85.92 622.57,85.99 623.38,86.07 624.19,86.14 625.01,86.21 625.82,86.28 626.64,86.35 627.45,86.41 628.26,86.48 629.08,86.54 629.89,86.60 630.71,86.65 631.52,86.71 632.33,86.76 633.15,86.81 633.96,86.86 634.78,86.91 635.59,86.96 636.40,87.00 637.22,87.05 638.03,87.09 638.85,87.13 639.66,87.17 640.47,87.20 641.29,87.24 642.10,87.27 642.92,87.31 643.73,87.34 644.54,87.37 645.36,87.40 646.17,87.43 646.99,87.45 647.80,87.48 648.61,87.50 649.43,87.53 650.24,87.55 651.06,87.57 651.87,87.59 652.68,87.61 653.50,87.63 654.31,87.65 655.13,87.67 655.94,87.68 656.75,87.70 657.57,87.71 658.38,87.73 659.20,87.74 660.01,87.75 660.82,87.77 661.64,87.78 662.45,87.79 663.27,87.80 664.08,87.81 664.89,87.82 665.71,87.83 666.52,87.84 667.34,87.85 668.15,87.85 668.96,87.86 669.78,87.87 670.59,87.88 671.41,87.88 672.22,87.89 673.03,87.89 673.85,87.90 674.66,87.90 675.48,87.91 676.29,87.91 677.10,87.92 677.92,87.92 678.73,87.93 679.55,87.93 680.36,87.93 681.17,87.94 681.99,87.94 682.80,87.94 683.62,87.95 684.43,87.95 685.24,87.95 686.06,87.95 686.87,87.96 687.69,87.96 688.50,87.96 689.31,87.96 690.13,87.96 690.94,87.96 691.76,87.97 692.57,87.97 693.38,87.97 694.20,87.97 695.01,87.97 695.83,87.97 696.64,87.97 697.45,87.97 698.27,87.97 699.08,87.97 699.90,87.97 700.71,87.97 701.52,87.97 702.34,87.98 703.15,87.98 703.97,87.98 704.78,87.98 705.59,87.98 706.41,87.98 707.22,87.98 708.04,87.98 708.85,87.98 709.66,87.98 710.48,87.98 711.29,87.98 712.11,87.98 712.92,87.98 713.73,87.98 714.55,87.98 715.36,87.98 716.18,87.98 716.99,87.98 717.80,87.98 718.62,87.98 719.43,87.98 720.25,87.98 721.06,87.98 721.87,87.98 722.69,87.97 723.50,87.97 724.32,87.97 725.13,87.97 725.94,87.97 726.76,87.97 727.57,87.97 728.39,87.97 729.20,87.97 730.01,87.97 730.83,87.97 731.64,87.97 732.46,87.97 733.27,87.97 734.08,87.97 734.90,87.97 735.71,87.97 736.53,87.97 737.34,87.97 738.15,87.97 738.97,87.97 739.78,87.97 740.60,87.97 741.41,87.97 742.22,87.97 743.04,87.97 743.85,87.97 744.67,87.97 745.48,87.97 746.29,87.97 747.11,87.97 747.92,87.97 748.74,87.97 749.55,87.97 750.36,87.97 751.18,87.97 751.99,87.96 752.81,87.96 753.62,87.96 754.43,87.96 755.25,87.96 756.06,87.96 756.88,87.96 757.69,87.96 758.50,87.96 759.32,87.96 760.13,87.96 760.95,87.96 761.76,87.96 762.57,87.96 763.39,87.96 764.20,87.96 765.02,87.96 765.83,87.96 766.64,87.96 767.46,87.96 768.27,87.96 769.09,87.96 769.90,87.96 770.71,87.96 771.53,87.96 772.34,87.96 773.16,87.96 773.97,87.96 774.78,87.96 775.60,87.96 776.41,87.96 777.23,87.96 778.04,87.96 778.85,87.96 779.67,87.96 780.48,87.96 781.30,87.96 782.11,87.96 782.92,87.96 783.74,87.96 784.55,87.96 785.37,87.96 786.18,87.96 786.99,87.96 787.81,87.96 788.62,87.96 789.44,87.96 790.25,87.96 791.06,87.96 791.88,87.96 792.69,87.96 793.51,87.96 794.32,87.96 795.13,87.96 795.95,87.96 796.76,87.96 797.58,87.96 798.39,87.96 799.20,87.96 800.02,87.96 800.83,87.95 801.65,87.95 802.46,87.95 803.27,87.95 804.09,87.95 804.90,87.95 805.72,87.95 806.53,87.95 807.34,87.95 808.16,87.95 808.97,87.95 809.79,87.95 810.60,87.95 811.41,87.95 812.23,87.95 813.04,87.95 813.86,87.95 814.67,87.95 815.48,87.95 816.30,87.95 817.11,87.95 817.93,87.95 818.74,87.95 819.55,87.95 820.37,87.95 821.18,87.95 822.00,87.95 822.81,87.95 823.62,87.95 824.44,87.95 825.25,87.95 826.07,87.95 826.88,87.95 827.69,87.95 828.51,87.95 829.32,87.95 830.14,87.95 830.95,87.95 831.76,87.95 832.58,87.95 833.39,87.95 834.21,87.95 835.02,87.95 835.83,87.95 836.65,87.95 837.46,87.95 838.28,87.95 839.09,87.95 839.90,87.95 840.72,87.95 841.53,87.95 842.35,87.95 843.16,87.95 843.97,87.95 844.79,87.95 845.60,87.95 846.42,87.95 847.23,87.95 848.04,87.95 848.86,87.95 849.67,87.95 850.49,87.95 851.30,87.95 852.11,87.95 852.93,87.95 853.74,87.95 854.56,87.95 855.37,87.95 856.18,87.95 857.00,87.95 857.81,87.95 858.63,87.95 859.44,87.95 860.25,87.95 861.07,87.95 861.88,87.95 862.70,87.95 863.51,87.95 864.32,87.95 865.14,87.95 865.95,87.95 866.77,87.95 867.58,87.95 868.39,87.95 869.21,87.95 870.02,87.95 870.84,87.95 871.65,87.95 872.46,87.95 873.28,87.95 874.09,87.95 874.91,87.95 875.72,87.95 876.53,87.95 877.35,87.95 878.16,87.95 878.98,87.95 879.79,87.95 880.60,87.95 881.42,87.95 882.23,87.95 883.05,87.95 883.86,87.95 884.67,87.95 885.49,87.95 886.30,87.95 887.12,87.95 887.93,87.95 888.74,87.95 889.56,87.95 890.37,87.95 891.19,87.95 892.00,87.95" fill="none" stroke="#2563eb" stroke-width="2.5" stroke-linejoin="round" stroke-linecap="round"/><polyline points="78.00,417.10 78.81,416.34 79.63,414.36 80.44,411.46 81.26,407.76 82.07,403.35 82.88,398.34 83.70,392.80 84.51,386.81 85.33,380.45 86.14,373.76 86.95,366.82 87.77,359.66 88.58,352.35 89.40,344.91 90.21,337.39 91.02,329.82 91.84,322.23 92.65,314.64 93.47,307.09 94.28,299.59 95.09,292.16 95.91,284.82 96.72,277.58 97.54,270.45 98.35,263.45 99.16,256.59 99.98,249.86 100.79,243.29 101.61,236.86 102.42,230.60 103.23,224.50 104.05,218.56 104.86,212.79 105.68,207.18 106.49,201.75 107.30,196.47 108.12,191.37 108.93,186.43 109.75,181.66 110.56,177.04 111.37,172.59 112.19,168.30 113.00,164.16 113.82,160.17 114.63,156.33 115.44,152.63 116.26,149.08 117.07,145.67 117.89,142.39 118.70,139.24 119.51,136.23 120.33,133.34 121.14,130.56 121.96,127.91 122.77,125.37 123.58,122.94 124.40,120.62 125.21,118.40 126.03,116.28 126.84,114.25 127.65,112.32 128.47,110.48 129.28,108.73 130.10,107.06 130.91,105.47 131.72,103.95 132.54,102.51 133.35,101.14 134.17,99.85 134.98,98.61 135.79,97.44 136.61,96.33 137.42,95.28 138.24,94.29 139.05,93.34 139.86,92.45 140.68,91.61 141.49,90.82 142.31,90.07 143.12,89.36 143.93,88.70 144.75,88.07 145.56,87.48 146.38,86.93 147.19,86.41 148.00,85.93 148.82,85.48 149.63,85.05 150.45,84.66 151.26,84.29 152.07,83.95 152.89,83.63 153.70,83.33 154.52,83.06 155.33,82.81 156.14,82.58 156.96,82.37 157.77,82.17 158.59,82.00 159.40,81.84 160.21,81.69 161.03,81.56 161.84,81.45 162.66,81.34 163.47,81.25 164.28,81.17 165.10,81.11 165.91,81.05 166.73,81.00 167.54,80.96 168.35,80.94 169.17,80.91 169.98,80.90 170.80,80.90 171.61,80.90 172.42,80.91 173.24,80.92 174.05,80.94 174.87,80.97 175.68,81.00 176.49,81.03 177.31,81.07 178.12,81.11 178.94,81.16 179.75,81.21 180.56,81.26 181.38,81.32 182.19,81.38 183.01,81.44 183.82,81.50 184.63,81.57 185.45,81.64 186.26,81.71 187.08,81.78 187.89,81.85 188.70,81.92 189.52,82.00 190.33,82.07 191.15,82.15 191.96,82.23 192.77,82.31 193.59,82.38 194.40,82.46 195.22,82.54 196.03,82.62 196.84,82.70 197.66,82.78 198.47,82.86 199.29,82.94 200.10,83.02 200.91,83.09 201.73,83.17 202.54,83.25 203.36,83.33 204.17,83.40 204.98,83.48 205.80,83.56 206.61,83.63 207.43,83.70 208.24,83.78 209.05,83.85 209.87,83.92 210.68,84.00 211.50,84.07 212.31,84.14 213.12,84.21 213.94,84.27 214.75,84.34 215.57,84.41 216.38,84.48 217.19,84.54 218.01,84.61 218.82,84.67 219.64,84.73 220.45,84.79 221.26,84.85 222.08,84.91 222.89,84.97 223.71,85.03 224.52,85.09 225.33,85.14 226.15,85.20 226.96,85.25 227.78,85.31 228.59,85.36 229.40,85.41 230.22,85.46 231.03,85.51 231.85,85.56 232.66,85.61 233.47,85.66 234.29,85.71 235.10,85.75 235.92,85.80 236.73,85.84 237.54,85.89 238.36,85.93 239.17,85.97 239.99,86.01 240.80,86.05 241.61,86.09 242.43,86.13 243.24,86.17 244.06,86.21 244.87,86.25 245.68,86.28 246.50,86.32 247.31,86.35 248.13,86.39 248.94,86.42 249.75,86.45 250.57,86.48 251.38,86.52 252.20,86.55 253.01,86.58 253.82,86.61 254.64,86.64 255.45,86.66 256.27,86.69 257.08,86.72 257.89,86.75 258.71,86.77 259.52,86.80 260.34,86.82 261.15,86.85 261.96,86.87 262.78,86.90 263.59,86.92 264.41,86.94 265.22,86.96 266.03,86.99 266.85,87.01 267.66,87.03 268.48,87.05 269.29,87.07 270.10,87.09 270.92,87.11 271.73,87.13 272.55,87.15 273.36,87.16 274.17,87.18 274.99,87.20 275.80,87.21 276.62,87.23 277.43,87.25 278.24,87.26 279.06,87.28 279.87,87.29 280.69,87.31 281.50,87.32 282.31,87.34 283.13,87.35 283.94,87.36 284.76,87.38 285.57,87.39 286.38,87.40 287.20,87.42 288.01,87.43 288.83,87.44 289.64,87.45 290.45,87.46 291.27,87.47 292.08,87.48 292.90,87.49 293.71,87.51 294.52,87.52 295.34,87.53 296.15,87.54 296.97,87.54 297.78,87.55 298.59,87.56 299.41,87.57 300.22,87.58 301.04,87.59 301.85,87.60 302.66,87.61 303.48,87.61 304.29,87.62 305.11,87.63 305.92,87.64 306.73,87.64 307.55,87.65 308.36,87.66 309.18,87.66 309.99,87.67 310.80,87.68 311.62,87.68 312.43,87.69 313.25,87.70 314.06,87.70 314.87,87.71 315.69,87.71 316.50,87.72 317.32,87.72 318.13,87.73 318.94,87.73 319.76,87.74 320.57,87.74 321.39,87.75 322.20,87.75 323.01,87.76 323.83,87.76 324.64,87.77 325.46,87.77 326.27,87.77 327.08,87.78 327.90,87.78 328.71,87.79 329.53,87.79 330.34,87.79 331.15,87.80 331.97,87.80 332.78,87.80 333.60,87.81 334.41,87.81 335.22,87.81 336.04,87.82 336.85,87.82 337.67,87.82 338.48,87.83 339.29,87.83 340.11,87.83 340.92,87.84 341.74,87.84 342.55,87.84 343.36,87.84 344.18,87.85 344.99,87.85 345.81,87.85 346.62,87.85 347.43,87.86 348.25,87.86 349.06,87.86 349.88,87.86 350.69,87.86 351.50,87.87 352.32,87.87 353.13,87.87 353.95,87.87 354.76,87.87 355.57,87.88 356.39,87.88 357.20,87.88 358.02,87.88 358.83,87.88 359.64,87.88 360.46,87.89 361.27,87.89 362.09,87.89 362.90,87.89 363.71,87.89 364.53,87.89 365.34,87.89 366.16,87.90 366.97,87.90 367.78,87.90 368.60,87.90 369.41,87.90 370.23,87.90 371.04,87.90 371.85,87.90 372.67,87.90 373.48,87.91 374.30,87.91 375.11,87.91 375.92,87.91 376.74,87.91 377.55,87.91 378.37,87.91 379.18,87.91 379.99,87.91 380.81,87.91 381.62,87.92 382.44,87.92 383.25,87.92 384.06,87.92 384.88,87.92 385.69,87.92 386.51,87.92 387.32,87.92 388.13,87.92 388.95,87.92 389.76,87.92 390.58,87.92 391.39,87.92 392.20,87.92 393.02,87.93 393.83,87.93 394.65,87.93 395.46,87.93 396.27,87.93 397.09,87.93 397.90,87.93 398.72,87.93 399.53,87.93 400.34,87.93 401.16,87.93 401.97,87.93 402.79,87.93 403.60,87.93 404.41,87.93 405.23,87.93 406.04,87.93 406.86,87.93 407.67,87.93 408.48,87.93 409.30,87.94 410.11,87.94 410.93,87.94 411.74,87.94 412.55,87.94 413.37,87.94 414.18,87.94 415.00,87.94 415.81,87.94 416.62,87.94 417.44,87.94 418.25,87.94 419.07,87.94 419.88,87.94 420.69,87.94 421.51,87.94 422.32,87.94 423.14,87.94 423.95,87.94 424.76,87.94 425.58,87.94 426.39,87.94 427.21,87.94 428.02,87.94 428.83,87.94 429.65,87.94 430.46,87.94 431.28,87.94 432.09,87.94 432.90,87.94 433.72,87.94 434.53,87.94 435.35,87.94 436.16,87.94 436.97,87.94 437.79,87.94 438.60,87.94 439.42,87.94 440.23,87.94 441.04,87.94 441.86,87.94 442.67,87.94 443.49,87.95 444.30,87.95 445.11,87.95 445.93,87.95 446.74,87.95 447.56,87.95 448.37,87.95 449.18,87.95 450.00,87.95 450.81,87.95 451.63,87.95 452.44,87.95 453.25,87.95 454.07,87.95 454.88,87.95 455.70,87.95 456.51,87.95 457.32,87.95 458.14,87.95 458.95,87.95 459.77,87.95 460.58,87.95 461.39,87.95 462.21,87.95 463.02,87.95 463.84,87.95 464.65,87.95 465.46,87.95 466.28,87.95 467.09,87.95 467.91,87.95 468.72,87.95 469.53,87.95 470.35,87.95 471.16,87.95 471.98,87.95 472.79,87.95 473.60,87.95 474.42,87.95 475.23,87.95 476.05,87.95 476.86,87.95 477.67,87.95 478.49,87.95 479.30,87.95 480.12,87.95 480.93,87.95 481.74,87.95 482.56,87.95 483.37,87.95 484.19,87.95 485.00,87.95 485.81,88.58 486.63,89.14 487.44,89.63 488.26,90.06 489.07,90.44 489.88,90.77 490.70,91.05 491.51,91.29 492.33,91.49 493.14,91.66 493.95,91.80 494.77,91.91 495.58,91.99 496.40,92.06 497.21,92.10 498.02,92.12 498.84,92.13 499.65,92.12 500.47,92.10 501.28,92.07 502.09,92.03 502.91,91.98 503.72,91.92 504.54,91.86 505.35,91.79 506.16,91.71 506.98,91.63 507.79,91.55 508.61,91.46 509.42,91.38 510.23,91.29 511.05,91.20 511.86,91.11 512.68,91.02 513.49,90.93 514.30,90.84 515.12,90.75 515.93,90.66 516.75,90.57 517.56,90.48 518.37,90.39 519.19,90.31 520.00,90.23 520.82,90.14 521.63,90.06 522.44,89.99 523.26,89.91 524.07,89.83 524.89,89.76 525.70,89.69 526.51,89.62 527.33,89.56 528.14,89.49 528.96,89.43 529.77,89.37 530.58,89.31 531.40,89.25 532.21,89.19 533.03,89.14 533.84,89.09 534.65,89.04 535.47,88.99 536.28,88.94 537.10,88.90 537.91,88.86 538.72,88.81 539.54,88.77 540.35,88.73 541.17,88.70 541.98,88.66 542.79,88.63 543.61,88.59 544.42,88.56 545.24,88.53 546.05,88.50 546.86,88.47 547.68,88.45 548.49,88.42 549.31,88.40 550.12,88.37 550.93,88.35 551.75,88.33 552.56,88.31 553.38,88.29 554.19,88.27 555.00,88.25 555.82,88.23 556.63,88.22 557.45,88.20 558.26,88.19 559.07,88.17 559.89,88.16 560.70,88.14 561.52,88.13 562.33,88.12 563.14,88.11 563.96,88.10 564.77,88.09 565.59,88.08 566.40,88.07 567.21,88.06 568.03,88.05 568.84,88.04 569.66,88.03 570.47,88.03 571.28,88.02 572.10,88.01 572.91,88.01 573.73,88.00 574.54,88.00 575.35,87.99 576.17,87.99 576.98,87.98 577.80,87.98 578.61,87.97 579.42,87.97 580.24,87.97 581.05,87.96 581.87,87.96 582.68,87.96 583.49,87.95 584.31,87.32 585.12,86.76 585.94,86.26 586.75,85.83 587.56,85.45 588.38,85.12 589.19,84.84 590.01,84.59 590.82,84.39 591.63,84.22 592.45,84.08 593.26,83.97 594.08,83.88 594.89,83.82 595.70,83.78 596.52,83.76 597.33,83.75 598.15,83.75 598.96,83.77 599.77,83.80 600.59,83.85 601.40,83.90 602.22,83.95 603.03,84.02 603.84,84.09 604.66,84.16 605.47,84.24 606.29,84.32 607.10,84.41 607.91,84.49 608.73,84.58 609.54,84.67 610.36,84.76 611.17,84.86 611.98,84.95 612.80,85.04 613.61,85.13 614.43,85.22 615.24,85.31 616.05,85.39 616.87,85.48 617.68,85.57 618.50,85.65 619.31,85.73 620.12,85.81 620.94,85.89 621.75,85.97 622.57,86.04 623.38,86.11 624.19,86.19 625.01,86.25 625.82,86.32 626.64,86.39 627.45,86.45 628.26,86.51 629.08,86.57 629.89,86.63 630.71,86.68 631.52,86.74 632.33,86.79 633.15,86.84 633.96,86.89 634.78,86.94 635.59,86.98 636.40,87.03 637.22,87.07 638.03,87.11 638.85,87.15 639.66,87.18 640.47,87.22 641.29,87.26 642.10,87.29 642.92,87.32 643.73,87.35 644.54,87.38 645.36,87.41 646.17,87.44 646.99,87.46 647.80,87.49 648.61,87.51 649.43,87.53 650.24,87.56 651.06,87.58 651.87,87.60 652.68,87.62 653.50,87.64 654.31,87.65 655.13,87.67 655.94,87.69 656.75,87.70 657.57,87.72 658.38,87.73 659.20,87.74 660.01,87.76 660.82,87.77 661.64,87.78 662.45,87.79 663.27,87.80 664.08,87.81 664.89,87.82 665.71,87.83 666.52,87.84 667.34,87.85 668.15,87.86 668.96,87.86 669.78,87.87 670.59,87.88 671.41,87.88 672.22,87.89 673.03,87.89 673.85,87.90 674.66,87.91 675.48,87.91 676.29,87.91 677.10,87.92 677.92,87.92 678.73,87.93 679.55,87.93 680.36,87.93 681.17,87.94 681.99,87.94 682.80,87.94 683.62,87.95 684.43,87.95 685.24,87.95 686.06,87.95 686.87,87.96 687.69,87.96 688.50,87.96 689.31,87.96 690.13,87.96 690.94,87.96 691.76,87.97 692.57,87.97 693.38,87.97 694.20,87.97 695.01,87.97 695.83,87.97 696.64,87.97 697.45,87.97 698.27,87.97 699.08,87.97 699.90,87.97 700.71,87.97 701.52,87.98 702.34,87.98 703.15,87.98 703.97,87.98 704.78,87.98 705.59,87.98 706.41,87.98 707.22,87.98 708.04,87.98 708.85,87.98 709.66,87.98 710.48,87.98 711.29,87.98 712.11,87.98 712.92,87.98 713.73,87.98 714.55,87.98 715.36,87.98 716.18,87.98 716.99,87.98 717.80,87.98 718.62,87.98 719.43,87.98 720.25,87.98 721.06,87.98 721.87,87.98 722.69,87.98 723.50,87.98 724.32,87.97 725.13,87.97 725.94,87.97 726.76,87.97 727.57,87.97 728.39,87.97 729.20,87.97 730.01,87.97 730.83,87.97 731.64,87.97 732.46,87.97 733.27,87.97 734.08,87.97 734.90,87.97 735.71,87.97 736.53,87.97 737.34,87.97 738.15,87.97 738.97,87.97 739.78,87.97 740.60,87.97 741.41,87.97 742.22,87.97 743.04,87.97 743.85,87.97 744.67,87.97 745.48,87.97 746.29,87.97 747.11,87.97 747.92,87.97 748.74,87.97 749.55,87.97 750.36,87.97 751.18,87.97 751.99,87.97 752.81,87.96 753.62,87.96 754.43,87.96 755.25,87.96 756.06,87.96 756.88,87.96 757.69,87.96 758.50,87.96 759.32,87.96 760.13,87.96 760.95,87.96 761.76,87.96 762.57,87.96 763.39,87.96 764.20,87.96 765.02,87.96 765.83,87.96 766.64,87.96 767.46,87.96 768.27,87.96 769.09,87.96 769.90,87.96 770.71,87.96 771.53,87.96 772.34,87.96 773.16,87.96 773.97,87.96 774.78,87.96 775.60,87.96 776.41,87.96 777.23,87.96 778.04,87.96 778.85,87.96 779.67,87.96 780.48,87.96 781.30,87.96 782.11,87.96 782.92,87.96 783.74,87.96 784.55,87.96 785.37,87.96 786.18,87.96 786.99,87.96 787.81,87.96 788.62,87.96 789.44,87.96 790.25,87.96 791.06,87.96 791.88,87.96 792.69,87.96 793.51,87.96 794.32,87.96 795.13,87.96 795.95,87.96 796.76,87.96 797.58,87.96 798.39,87.96 799.20,87.96 800.02,87.96 800.83,87.96 801.65,87.96 802.46,87.95 803.27,87.95 804.09,87.95 804.90,87.95 805.72,87.95 806.53,87.95 807.34,87.95 808.16,87.95 808.97,87.95 809.79,87.95 810.60,87.95 811.41,87.95 812.23,87.95 813.04,87.95 813.86,87.95 814.67,87.95 815.48,87.95 816.30,87.95 817.11,87.95 817.93,87.95 818.74,87.95 819.55,87.95 820.37,87.95 821.18,87.95 822.00,87.95 822.81,87.95 823.62,87.95 824.44,87.95 825.25,87.95 826.07,87.95 826.88,87.95 827.69,87.95 828.51,87.95 829.32,87.95 830.14,87.95 830.95,87.95 831.76,87.95 832.58,87.95 833.39,87.95 834.21,87.95 835.02,87.95 835.83,87.95 836.65,87.95 837.46,87.95 838.28,87.95 839.09,87.95 839.90,87.95 840.72,87.95 841.53,87.95 842.35,87.95 843.16,87.95 843.97,87.95 844.79,87.95 845.60,87.95 846.42,87.95 847.23,87.95 848.04,87.95 848.86,87.95 849.67,87.95 850.49,87.95 851.30,87.95 852.11,87.95 852.93,87.95 853.74,87.95 854.56,87.95 855.37,87.95 856.18,87.95 857.00,87.95 857.81,87.95 858.63,87.95 859.44,87.95 860.25,87.95 861.07,87.95 861.88,87.95 862.70,87.95 863.51,87.95 864.32,87.95 865.14,87.95 865.95,87.95 866.77,87.95 867.58,87.95 868.39,87.95 869.21,87.95 870.02,87.95 870.84,87.95 871.65,87.95 872.46,87.95 873.28,87.95 874.09,87.95 874.91,87.95 875.72,87.95 876.53,87.95 877.35,87.95 878.16,87.95 878.98,87.95 879.79,87.95 880.60,87.95 881.42,87.95 882.23,87.95 883.05,87.95 883.86,87.95 884.67,87.95 885.49,87.95 886.30,87.95 887.12,87.95 887.93,87.95 888.74,87.95 889.56,87.95 890.37,87.95 891.19,87.95 892.00,87.95" fill="none" stroke="#dc2626" stroke-width="2.5" stroke-linejoin="round" stroke-linecap="round"/>
<line x1="78" y1="496" x2="106" y2="496" stroke="#111827" stroke-width="3"/><text x="114" y="500" font-size="13" fill="#111827">Reference</text><line x1="248" y1="496" x2="276" y2="496" stroke="#2563eb" stroke-width="3"/><text x="284" y="500" font-size="13" fill="#111827">PID</text><line x1="418" y1="496" x2="446" y2="496" stroke="#dc2626" stroke-width="3"/><text x="454" y="500" font-size="13" fill="#111827">ML Neural Network</text>
</svg>
