<svg xmlns="http://www.w3.org/2000/svg" width="920" height="520" viewBox="0 0 920 520">
<rect width="100%" height="100%" fill="#ffffff"/>
<text x="460.0" y="30" text-anchor="middle" font-size="20" font-weight="700" fill="#111827">Neural Network Training Loss</text>
<line x1="78.00" y1="54" x2="78.00" y2="444" stroke="#e5e7eb" stroke-width="1"/><text x="78.00" y="472" text-anchor="middle" font-size="12" fill="#374151">1.0</text><line x1="240.80" y1="54" x2="240.80" y2="444" stroke="#e5e7eb" stroke-width="1"/><text x="240.80" y="472" text-anchor="middle" font-size="12" fill="#374151">36.8</text><line x1="403.60" y1="54" x2="403.60" y2="444" stroke="#e5e7eb" stroke-width="1"/><text x="403.60" y="472" text-anchor="middle" font-size="12" fill="#374151">72.6</text><line x1="566.40" y1="54" x2="566.40" y2="444" stroke="#e5e7eb" stroke-width="1"/><text x="566.40" y="472" text-anchor="middle" font-size="12" fill="#374151">108.4</text><line x1="729.20" y1="54" x2="729.20" y2="444" stroke="#e5e7eb" stroke-width="1"/><text x="729.20" y="472" text-anchor="middle" font-size="12" fill="#374151">144.2</text><line x1="892.00" y1="54" x2="892.00" y2="444" stroke="#e5e7eb" stroke-width="1"/><text x="892.00" y="472" text-anchor="middle" font-size="12" fill="#374151">180.0</text><line x1="78" y1="444.00" x2="892" y2="444.00" stroke="#e5e7eb" stroke-width="1"/><text x="66" y="448.00" text-anchor="end" font-size="12" fill="#374151">-0.05</text><line x1="78" y1="366.00" x2="892" y2="366.00" stroke="#e5e7eb" stroke-width="1"/><text x="66" y="370.00" text-anchor="end" font-size="12" fill="#374151">-0.02</text><line x1="78" y1="288.00" x2="892" y2="288.00" stroke="#e5e7eb" stroke-width="1"/><text x="66" y="292.00" text-anchor="end" font-size="12" fill="#374151">0.01</text><line x1="78" y1="210.00" x2="892" y2="210.00" stroke="#e5e7eb" stroke-width="1"/><text x="66" y="214.00" text-anchor="end" font-size="12" fill="#374151">0.05</text><line x1="78" y1="132.00" x2="892" y2="132.00" stroke="#e5e7eb" stroke-width="1"/><text x="66" y="136.00" text-anchor="end" font-size="12" fill="#374151">0.08</text><line x1="78" y1="54.00" x2="892" y2="54.00" stroke="#e5e7eb" stroke-width="1"/><text x="66" y="58.00" text-anchor="end" font-size="12" fill="#374151">0.11</text>
<line x1="78" y1="54" x2="78" y2="444" stroke="#111827" stroke-width="1.5"/>
<line x1="78" y1="444" x2="892" y2="444" stroke="#111827" stroke-width="1.5"/>
<text x="460.0" y="478" text-anchor="middle" font-size="14" fill="#111827">Epoch</text>
<text transform="translate(20 260.0) rotate(-90)" text-anchor="middle" font-size="14" fill="#111827">MSE Loss</text>
<polyline points="78.00,177.18 82.55,284.78 87.09,296.92 91.64,308.71 96.19,314.26 100.74,316.91 105.28,317.85 109.83,318.26 114.38,318.81 118.93,318.56 123.47,318.85 128.02,318.64 132.57,319.07 137.12,318.51 141.66,319.04 146.21,319.02 150.76,319.05 155.31,318.97 159.85,318.91 164.40,319.10 168.95,319.20 173.50,317.97 178.04,319.14 182.59,319.22 187.14,318.91 191.69,318.71 196.23,318.61 200.78,318.83 205.33,318.98 209.88,319.11 214.42,319.08 218.97,319.52 223.52,319.33 228.07,319.27 232.61,319.44 237.16,319.30 241.71,319.61 246.26,319.45 250.80,319.67 255.35,319.16 259.90,318.88 264.45,319.47 268.99,319.83 273.54,319.60 278.09,319.61 282.64,319.70 287.18,319.67 291.73,319.91 296.28,319.86 300.83,319.84 305.37,319.57 309.92,319.22 314.47,319.73 319.02,319.99 323.56,319.85 328.11,319.47 332.66,319.87 337.21,320.27 341.75,320.21 346.30,320.15 350.85,319.15 355.40,319.92 359.94,320.12 364.49,320.04 369.04,320.28 373.59,319.93 378.13,320.02 382.68,320.21 387.23,320.21 391.78,320.22 396.32,320.42 400.87,320.12 405.42,320.16 409.97,320.10 414.51,320.16 419.06,320.07 423.61,320.27 428.16,320.37 432.70,320.27 437.25,320.41 441.80,320.20 446.35,320.36 450.89,320.12 455.44,320.39 459.99,319.49 464.54,320.37 469.08,320.47 473.63,320.49 478.18,320.27 482.73,320.36 487.27,320.37 491.82,320.47 496.37,320.09 500.92,320.20 505.46,320.39 510.01,320.38 514.56,320.34 519.11,320.48 523.65,320.25 528.20,320.47 532.75,320.39 537.30,320.49 541.84,320.38 546.39,319.98 550.94,320.45 555.49,320.24 560.03,320.50 564.58,320.40 569.13,320.36 573.68,320.65 578.22,320.59 582.77,320.53 587.32,320.34 591.87,320.20 596.41,320.44 600.96,320.58 605.51,320.26 610.06,320.39 614.60,320.48 619.15,320.55 623.70,320.62 628.25,320.52 632.79,320.45 637.34,320.26 641.89,320.28 646.44,320.49 650.98,320.65 655.53,320.30 660.08,320.24 664.63,320.35 669.17,320.65 673.72,320.63 678.27,320.53 682.82,320.66 687.36,320.66 691.91,320.65 696.46,320.68 701.01,320.55 705.55,320.52 710.10,320.34 714.65,320.64 719.20,320.73 723.74,320.65 728.29,320.70 732.84,320.60 737.39,320.64 741.93,320.58 746.48,320.65 751.03,320.64 755.58,320.74 760.12,320.64 764.67,320.39 769.22,320.69 773.77,320.20 778.31,320.61 782.86,320.49 787.41,320.44 791.96,320.64 796.50,320.61 801.05,320.71 805.60,320.74 810.15,320.73 814.69,320.60 819.24,320.72 823.79,320.48 828.34,320.34 832.88,320.82 837.43,320.61 841.98,320.70 846.53,320.72 851.07,320.71 855.62,320.62 860.17,320.52 864.72,320.75 869.26,320.71 873.81,320.67 878.36,320.77 882.91,320.69 887.45,320.70 892.00,320.44" fill="none" stroke="#059669" stroke-width="2.5" stroke-linejoin="round" stroke-linecap="round"/>
<line x1="78" y1="496" x2="106" y2="496" stroke="#059669" stroke-width="3"/><text x="114" y="500" font-size="13" fill="#111827">Training loss</text>
</svg>
